<svg width="225" height="468" viewBox="0 0 225 468" fill="none" xmlns="http://www.w3.org/2000/svg">
<path d="M59.1246 212.684C70.1417 211.802 79.7546 220.406 80.5996 231.895L49.1328 441.149L25.3027 439.574L40.8373 236.33C39.2714 224.426 47.6415 213.604 59.1246 212.684Z" fill="url(#paint0_linear_6_151)"/>
<path d="M80.0528 235.519C67.8861 235.947 53.6129 236.459 40.7938 236.92L35.6985 303.579L69.2345 307.495L80.059 235.526L80.0528 235.519Z" fill="url(#paint1_linear_6_151)"/>
<path d="M15.5097 467.979H52.9232L50.5557 439.846H22.376L15.5097 467.979Z" fill="#010101"/>
<path d="M19.9962 441.539C22.0281 441.117 24.1656 441.026 26.3343 441.312C28.1984 441.551 29.9694 442.057 31.6222 442.783" stroke="white" stroke-width="2.56" stroke-linecap="round" stroke-linejoin="round"/>
<path d="M12.1356 448.139C15.2488 446.576 18.7907 445.837 22.4817 446.161C25.0169 446.388 27.403 447.095 29.5654 448.197" stroke="white" stroke-width="2.56" stroke-linecap="round" stroke-linejoin="round"/>
<path d="M40.3153 467.979H0.366592C0.366592 456.47 9.3083 447.134 20.3441 447.134C31.3798 447.134 40.3215 456.464 40.3215 467.979H40.3153Z" fill="#010101"/>
<path d="M0 467.979H52.9232L52.5504 463.499H0V467.979Z" fill="white"/>
<path d="M224.326 137.92C223.773 137.188 222.045 137.291 220.802 137.628L201.111 143.529L201.856 136.708C202.167 135.145 201.117 133.609 199.557 133.434C198.203 133.284 196.979 134.328 196.705 135.722L195.928 139.645C195.63 141.149 194.934 142.543 193.928 143.658C192.822 144.884 191.927 146.304 191.293 147.853L190.007 150.972L142.806 163.408L127.315 120.939L104.635 130.14L123.345 181.439C123.717 182.437 124.202 183.345 124.774 184.175C127.402 189.543 133.405 192.344 139.128 190.535L194.934 168.076C194.934 168.076 198.197 168.984 203.255 168.024C206.281 167.453 209.158 166.358 210.991 165.573L214.769 164.665C216.067 164.354 216.888 162.986 216.589 161.631L216.44 160.957C216.198 159.848 215.272 159.09 214.234 159.012L214.775 158.882C216.223 158.532 217.136 157.008 216.801 155.498L216.776 155.387C216.484 154.078 215.353 153.196 214.116 153.202C215.546 152.833 216.434 151.329 216.105 149.831L216.08 149.721C215.744 148.21 214.284 147.257 212.836 147.607L211.301 147.976L223.555 141.668C224.941 141.007 225.587 139.587 224.319 137.914L224.326 137.92Z" fill="url(#paint2_linear_6_151)"/>
<path d="M214.663 164.192L208.139 165.761C207.082 166.014 206.038 165.327 205.796 164.231L205.647 163.557C205.529 163.032 205.616 162.481 205.895 162.02C206.113 161.651 206.448 161.411 206.821 161.249L207.704 160.97L213.632 159.543C213.886 159.479 214.042 159.219 213.986 158.953C213.924 158.688 213.675 158.519 213.414 158.584L206.89 160.153C206.672 160.205 206.461 160.289 206.262 160.393L205.821 160.529C205.243 160.672 204.646 160.561 204.143 160.231C203.634 159.9 203.286 159.388 203.124 158.675C202.994 158.072 203.093 157.449 203.41 156.917C203.721 156.399 204.205 156.042 204.771 155.893C204.963 155.887 205.15 155.874 205.342 155.828L211.681 154.305C211.935 154.24 212.091 153.98 212.035 153.715C211.973 153.449 211.724 153.287 211.463 153.345L205.131 154.869C203.938 155.167 202.733 154.376 202.434 153.014C202.161 151.763 202.907 150.512 204.106 150.226L210.55 148.677C210.804 148.612 210.96 148.353 210.904 148.087C210.842 147.821 210.599 147.652 210.332 147.717L203.888 149.267C202.18 149.682 201.111 151.465 201.533 153.351C201.726 154.22 202.242 154.908 202.907 155.355C202.093 156.126 199.508 158.052 194.549 157.598C194.22 157.579 193.971 157.806 193.946 158.123C193.921 158.441 194.145 158.726 194.45 158.752C195.003 158.804 195.525 158.824 196.022 158.824C198.948 158.824 200.968 158.02 202.267 157.235C202.117 157.78 202.093 158.376 202.229 159.005C202.546 160.438 203.714 161.424 205.063 161.547C204.678 162.221 204.547 163.012 204.721 163.777L204.87 164.452C205.181 165.846 206.38 166.799 207.697 166.799C207.909 166.799 208.132 166.773 208.35 166.721L214.874 165.152C215.129 165.087 215.285 164.828 215.229 164.562C215.166 164.296 214.918 164.134 214.657 164.192H214.663Z" fill="url(#paint3_linear_6_151)"/>
<path d="M141.178 145.571L138.053 148.015C131.472 153.17 123.742 156.509 115.59 157.715L111.663 158.292L97.7809 121.925C94.413 113.425 106.344 96.5414 106.344 96.5414C115.844 98.4346 123.922 100.704 127.29 109.204L141.172 145.571H141.178Z" fill="#F79327"/>
<path d="M101.894 212.8C112.887 211.627 122.705 219.971 123.829 231.435L134.051 339.946C134.225 341.793 134.275 343.648 134.206 345.502L130.764 437.953L106.778 440.514L101.652 349.82C101.534 347.72 101.31 345.632 100.981 343.551L84.1912 236.92C82.3333 225.061 90.4361 214.019 101.894 212.794V212.8Z" fill="url(#paint4_linear_6_151)"/>
<path d="M130.764 437.953L162.33 448.593C167.457 450.324 171.402 454.636 172.825 460.056L173.776 467.791H107.58L106.791 440.514L130.776 437.953H130.764Z" fill="#010101"/>
<path d="M145.416 463.311C147.026 453.968 152.494 448.872 156.054 446.479L158.807 447.406C156.073 448.917 149.468 453.514 147.603 463.311H173.211L173.757 467.791H107.561L107.431 463.311H145.41H145.416Z" fill="white"/>
<path d="M143.452 449.198L143.83 449.592C144.529 450.321 145.662 450.321 146.361 449.592L151.286 444.453C151.985 443.724 151.985 442.541 151.286 441.812L150.909 441.418C150.21 440.689 149.077 440.689 148.378 441.418L143.452 446.557C142.753 447.286 142.753 448.469 143.452 449.198Z" fill="white"/>
<path d="M137.309 447.416L136.936 447.026C136.237 446.297 136.237 445.114 136.936 444.385L141.857 439.251C142.555 438.522 143.689 438.522 144.388 439.251L144.761 439.64C145.46 440.369 145.46 441.552 144.761 442.281L139.84 447.416C139.141 448.145 138.008 448.145 137.309 447.416Z" fill="white"/>
<path d="M130.137 444.571L130.515 444.965C131.214 445.694 132.347 445.694 133.046 444.964L137.971 439.824C138.669 439.095 138.669 437.912 137.97 437.183L137.592 436.789C136.893 436.06 135.76 436.06 135.061 436.789L130.137 441.93C129.438 442.659 129.438 443.841 130.137 444.571Z" fill="white"/>
<path d="M121.574 199.749H44.7334C44.7334 199.749 30.2986 219.226 31.9329 247.832C33.418 273.838 30.5969 296.388 30.5969 296.388L80.4194 300.382L85.5272 276.678L86.5525 300.382L135.412 293.95L121.574 199.742V199.749Z" fill="#545571"/>
<path d="M122.618 206.829L121.58 199.749H44.7334C44.7334 199.749 40.247 205.805 36.5622 216.12C92.8719 221.106 122.618 206.829 122.618 206.829Z" fill="#545571"/>
<path d="M95.5874 233.665H96.768C99.3654 233.665 101.466 231.467 101.466 228.763L101.863 199.755" stroke="#7EA3D4" stroke-width="0.64" stroke-linecap="round" stroke-linejoin="round"/>
<path d="M85.5272 276.684C85.5272 276.684 94.8418 262.66 95.0779 244.13C95.314 225.599 96.2647 199.749 96.2647 199.749" stroke="#7EA3D4" stroke-width="0.64" stroke-linecap="round" stroke-linejoin="round"/>
<path d="M120.008 111.292C120.381 104.464 115.838 98.4151 109.401 97.1443L94.5621 94.2202C86.9315 92.8716 79.1394 92.8781 71.5088 94.2267L41.614 100.153C41.614 100.153 49.0085 149.435 46.7777 171.149C45.8084 180.576 42.6642 202.439 42.6642 202.439C42.6642 202.439 51.9352 212.411 83.0354 212.411C114.136 212.411 122.611 206.829 122.611 206.829C122.611 206.829 119.877 180.615 119.473 171.143C118.734 153.87 119.125 127.469 120.008 111.285V111.292Z" fill="#F79327"/>
<path d="M104.349 96.1459L103.516 95.9838C102.994 106.974 96.8426 115.753 85.869 115.753C74.8954 115.753 63.0767 106.987 62.5423 96.0032L61.7096 96.1653C62.3248 107.551 74.4915 116.621 85.869 116.621C97.2465 116.621 103.74 107.538 104.349 96.1394V96.1459Z" fill="#F79327"/>
<path d="M85.9684 112.349C95.3513 112.349 100.223 104.912 101.161 95.3808L94.5621 94.2202C86.9315 92.8781 79.1394 92.8781 71.5088 94.2267L65.0899 95.3613C66.0158 104.899 76.5793 112.349 85.9684 112.349Z" fill="#F79327"/>
<path d="M22.5748 205.039C16.0876 203.224 12.235 196.261 13.9749 189.492L26.7754 141.007L50.2761 147.581L37.4756 196.066C35.7357 202.835 29.0621 206.855 22.5748 205.039Z" fill="url(#paint5_linear_6_151)"/>
<path d="M19.3188 169.237C19.3188 169.237 22.4133 166.15 30.5907 166.449C39.1099 166.76 44.4103 169.781 44.4103 169.781L50.2699 147.581L26.7692 141.007L19.3188 169.23V169.237Z" fill="url(#paint6_linear_6_151)"/>
<path d="M47.9335 165.262L15.5905 161.132L28.7079 112.874C30.6901 103.907 39.259 98.3179 47.8527 100.386C56.4464 102.454 61.8028 111.395 59.8206 120.362L47.9397 165.262H47.9335Z" fill="#F79327"/>
<path d="M60.8645 467.979C42.9625 467.324 28.826 451.51 29.4536 432.831L33.9276 299.234C34.5552 280.555 49.7107 265.805 67.6128 266.459C85.5148 267.114 99.6513 282.928 99.0237 301.608L94.5497 435.204C93.9221 453.883 78.7666 468.634 60.8645 467.979Z" fill="#28BBB0"/>
<path d="M64.655 467.979C46.7529 467.324 32.6165 451.51 33.2441 432.831L37.718 299.234C38.3456 280.555 53.5012 265.805 71.4032 266.459C89.3053 267.114 103.442 282.928 102.814 301.608L98.3402 435.204C97.7126 453.883 82.5571 468.634 64.655 467.979Z" fill="#59C5C4"/>
<path d="M100.956 324.644L94.2205 324.359C88.6218 324.119 84.2348 319.152 84.4585 313.311C84.6884 307.469 89.4483 302.891 95.0469 303.125L101.783 303.41C107.381 303.65 111.768 308.616 111.545 314.458C111.315 320.3 106.555 324.877 100.956 324.644Z" fill="#8D8493"/>
<path d="M98.9554 313.764C98.7814 318.173 95.8547 321.629 92.4122 321.48C88.9698 321.337 86.3227 317.642 86.4905 313.233C86.6582 308.824 89.5912 305.368 93.0336 305.517C96.4761 305.666 99.1232 309.356 98.9554 313.764Z" fill="#545571"/>
<path d="M95.7491 313.628C95.6683 315.761 94.2454 317.441 92.5801 317.369C90.9148 317.298 89.6285 315.509 89.7093 313.375C89.79 311.242 91.213 309.563 92.8783 309.634C94.5436 309.706 95.8299 311.495 95.7491 313.628Z" fill="#8D8493"/>
<path d="M92.0022 309.511L65.1584 308.37C63.0706 308.279 61.3059 309.978 61.2189 312.156C61.1319 314.335 62.7599 316.176 64.8477 316.267L72.1801 316.578L71.9874 321.577C71.8569 324.936 74.386 327.802 77.6047 327.938C80.8235 328.074 83.57 325.435 83.7005 322.076L83.8931 317.078L91.6915 317.408C93.7794 317.499 95.5441 315.8 95.6311 313.615C95.7181 311.43 94.09 309.595 91.996 309.505L92.0022 309.511Z" fill="white"/>
<path d="M59.6716 322.893L52.9358 322.608C47.3371 322.368 42.9501 317.402 43.1738 311.56C43.4037 305.718 48.1635 301.141 53.7622 301.374L60.498 301.659C66.0967 301.899 70.4836 306.866 70.2599 312.708C70.03 318.549 65.2702 323.127 59.6716 322.893Z" fill="#8D8493"/>
<path d="M57.6707 312.014C57.4967 316.423 54.57 319.879 51.1275 319.729C47.6851 319.587 45.038 315.891 45.2058 311.482C45.3798 307.073 48.3065 303.617 51.7489 303.767C55.1914 303.909 57.8385 307.605 57.6707 312.014Z" fill="#545571"/>
<path d="M54.4582 311.878C54.3774 314.011 52.9544 315.69 51.2891 315.619C49.6238 315.547 48.3376 313.758 48.4183 311.625C48.4991 309.492 49.9221 307.812 51.5874 307.884C53.2527 307.955 54.539 309.745 54.4582 311.878Z" fill="#8D8493"/>
<path d="M101.155 414.521L94.4256 414.223C88.8331 413.976 84.0547 418.547 83.8185 424.383C83.5824 430.218 87.9632 435.204 93.5556 435.45L100.285 435.749C105.878 435.995 110.656 431.424 110.892 425.589C111.128 419.753 106.748 414.767 101.155 414.521Z" fill="#8D8493"/>
<path d="M98.2968 425.193C98.477 420.784 95.8361 417.089 92.3936 416.933C88.9512 416.777 86.0182 420.227 85.838 424.636C85.6578 429.044 88.2987 432.74 91.7412 432.896C95.1837 433.051 98.1166 429.602 98.2968 425.193Z" fill="#545571"/>
<path d="M95.0905 425.05C95.1775 422.917 93.8975 421.121 92.2321 421.05C90.5668 420.979 89.1439 422.645 89.0569 424.785C88.9699 426.918 90.2499 428.714 91.9152 428.785C93.5806 428.856 95.0035 427.19 95.0905 425.05Z" fill="#8D8493"/>
<path d="M91.0328 428.824L64.189 427.631C62.1012 427.54 60.4731 425.692 60.5663 423.514C60.6533 421.335 62.4243 419.637 64.5121 419.734L71.8445 420.058L72.0495 415.059C72.1862 411.701 74.9327 409.068 78.1515 409.211C81.3703 409.353 83.8931 412.219 83.7564 415.578L83.5513 420.577L91.3497 420.92C93.4375 421.011 95.0656 422.859 94.9723 425.038C94.8853 427.216 93.1144 428.915 91.0266 428.818L91.0328 428.824Z" fill="white"/>
<path d="M59.8704 412.686L53.1408 412.388C47.5484 412.141 42.7699 416.712 42.5338 422.548C42.2977 428.383 46.6784 433.369 52.2709 433.615L59.0005 433.914C64.5929 434.16 69.3713 429.589 69.6075 423.754C69.8436 417.918 65.4628 412.932 59.8704 412.686Z" fill="#8D8493"/>
<path d="M57.012 423.358C57.1922 418.949 54.5513 415.254 51.1088 415.098C47.6664 414.942 44.7334 418.392 44.5532 422.801C44.373 427.21 47.0139 430.905 50.4564 431.061C53.8988 431.216 56.8318 427.767 57.012 423.358Z" fill="#545571"/>
<path d="M53.8057 423.216C53.8927 421.082 52.6127 419.286 50.9474 419.215C49.282 419.144 47.8591 420.81 47.7721 422.95C47.6851 425.089 48.9651 426.879 50.6305 426.95C52.2958 427.022 53.7187 425.355 53.8057 423.216Z" fill="#8D8493"/>
<path d="M87.2422 277.054L84.2782 267.892C84.0545 267.192 83.5885 266.602 82.9795 266.226L73.9757 260.695L74.0068 260.682L53.7497 250.114L37.3327 190.354C35.1765 183.715 28.2729 180.155 21.9038 182.405C15.5408 184.655 12.1294 191.858 14.2856 198.504L37.9914 257.486C42.5337 270.972 45.9575 268.845 50.2823 270.019L48.5176 272.995C47.7595 274.272 47.8589 275.913 48.7662 277.086L51.7115 280.886C52.277 281.612 53.1593 281.988 54.0479 281.871L55.8624 281.644C57.13 281.489 58.2423 280.691 58.845 279.518L59.9573 277.352L59.485 280.237L63.2071 278.72C64.3132 278.266 65.208 277.384 65.6989 276.256L66.9043 273.481L66.196 277.352L70.0299 276.172C71.4839 275.725 72.6273 274.558 73.0871 273.053L74.013 270.025L79.5371 272.664L82.9733 279.051C83.3896 279.822 84.1726 280.302 85.0239 280.302C86.6333 280.302 87.7642 278.655 87.2484 277.067L87.2422 277.054Z" fill="url(#paint7_linear_6_151)"/>
<path d="M46.9207 165.132L49.7293 139.613" stroke="#93596F" stroke-width="0.64" stroke-linecap="round" stroke-linejoin="round"/>
<path d="M119.188 157.034V135.93" stroke="#93596F" stroke-width="0.64" stroke-linecap="round" stroke-linejoin="round"/>
<path d="M107.866 46.4873C107.866 46.4873 108.848 43.1936 113.75 41.1447C118.653 39.0959 120.505 42.1692 120.834 45.5796C121.163 48.99 117.348 57.6263 113.645 59.1046C109.941 60.5828 107.872 57.8532 107.872 57.8532V46.4873H107.866Z" fill="url(#paint8_linear_6_151)"/>
<path style="mix-blend-mode:multiply" opacity="0.6" d="M107.866 52.3874V55.8497C107.866 55.8497 109.388 51.8817 110.314 51.9401C111.24 51.9984 110.861 54.6113 111.184 55.5191C111.514 56.4268 112.818 55.4607 113.11 52.5041C113.403 49.5476 111.458 49.58 111.458 49.58C111.458 49.58 113.62 44.3023 116.286 45.8324C118.958 47.3691 117.41 54.3974 117.41 54.3974C117.41 54.3974 121.083 47.7257 120.312 45.2683C119.542 42.811 117.261 42.636 113.558 44.9636C111.743 46.1047 109.973 48.6658 108.637 50.974C108.357 51.4603 108.096 51.9336 107.86 52.3809L107.866 52.3874Z" fill="url(#paint9_linear_6_151)"/>
<path style="mix-blend-mode:multiply" opacity="0.6" d="M107.866 52.0697V54.4298C108.425 53.3081 109.867 50.6174 110.538 51.3112C111.371 52.18 110.929 53.7814 111.625 54.8966C112.321 56.0053 113.322 53.0164 112.744 51.0259C112.166 49.0354 109.879 49.8264 109.196 50.3905C109.034 50.5266 108.848 50.7276 108.649 50.974C108.4 51.2852 108.133 51.6678 107.872 52.0633L107.866 52.0697Z" fill="url(#paint10_linear_6_151)"/>
<path d="M93.686 92.3724V74.9896L84.0049 76.1956L74.3237 74.9896V92.3724C74.3237 95.3873 72.2607 96.3793 72.2607 96.3793C72.2607 96.3793 74.2181 99.3034 84.0111 99.3034C93.8041 99.3034 95.7615 96.3793 95.7615 96.3793C95.7615 96.3793 93.6985 95.3873 93.6985 92.3724H93.686Z" fill="url(#paint11_linear_6_151)"/>
<g style="mix-blend-mode:multiply" opacity="0.6">
<path d="M93.686 74.9896V88.4822C92.145 90.116 90.1317 91.4063 87.5529 91.6073C81.2086 92.1 76.0449 84.2094 74.3175 81.2139V74.9896L84.0048 76.1956L93.686 74.9896Z" fill="#CE78B1"/>
</g>
<path d="M108.326 41.443C108.326 32.865 109.494 12.999 83.9241 12.999C58.3542 12.999 59.5224 32.865 59.5224 41.443C59.5224 50.0209 60.1562 63.3384 62.5485 67.6825C68.2963 78.0953 81.4261 81.7197 86.2232 81.7197C91.0203 81.7197 104.641 78.0953 110.389 67.6825C112.787 63.3449 108.326 50.4034 108.326 41.443Z" fill="url(#paint12_linear_6_151)"/>
<path d="M95.5439 61.4646C95.1773 61.6721 93.8289 61.2183 92.5178 61.8212C91.2067 62.4307 90.635 62.5604 89.6532 62.5604C88.6714 62.5604 88.0997 62.4242 86.7886 61.8212C85.4775 61.2183 84.1291 61.6721 83.7625 61.4646C83.4332 61.2766 82.7683 60.0577 84.3217 57.9245C84.4895 57.6911 84.6821 57.4512 84.9058 57.1984C87.1987 54.6243 89.647 54.9615 89.647 54.9615C89.647 54.9615 92.1014 54.6179 94.3881 57.1984C94.6118 57.4512 94.8045 57.6911 94.9722 57.9245C96.5257 60.0512 95.8608 61.2766 95.5315 61.4646H95.5439Z" fill="url(#paint13_linear_6_151)"/>
<g style="mix-blend-mode:multiply" opacity="0.6">
<path d="M95.5438 61.4646C95.1772 61.6721 93.8288 61.2182 92.5177 61.8212C91.2066 62.4307 90.6349 62.5604 89.6531 62.5604C88.6714 62.5604 88.0997 62.4242 86.7886 61.8212C85.4774 61.2182 84.129 61.6721 83.7624 61.4646C83.4331 61.2766 82.7682 60.0577 84.3217 57.9245C84.3217 57.9245 84.0234 59.5455 84.8623 60.0382C84.8623 60.0382 87.3292 60.531 89.6531 60.531C91.9771 60.531 94.444 60.0382 94.444 60.0382C95.2767 59.5455 94.9846 57.9245 94.9846 57.9245C96.5381 60.0512 95.8732 61.2766 95.5438 61.4646Z" fill="#CE78B1"/>
</g>
<path style="mix-blend-mode:multiply" opacity="0.6" d="M85.1233 56.9649C85.7882 56.9196 85.869 58.7544 85.869 58.7544C85.869 58.7544 86.1859 57.0492 85.608 56.5046L85.1233 56.9714V56.9649Z" fill="url(#paint14_linear_6_151)"/>
<path style="mix-blend-mode:multiply" opacity="0.6" d="M94.0898 56.9649C93.4249 56.9196 93.3441 58.7544 93.3441 58.7544C93.3441 58.7544 93.0272 57.0492 93.6051 56.5046L94.0898 56.9714V56.9649Z" fill="url(#paint15_linear_6_151)"/>
<path d="M85.1233 61.4905C85.1233 61.4905 86.1672 61.2701 87.5591 62.1259C87.5591 62.1259 86.3661 61.9639 85.1233 61.4905Z" fill="#4F1C3E"/>
<path d="M94.0898 61.4905C94.0898 61.4905 93.0459 61.2701 91.654 62.1259C91.654 62.1259 92.847 61.9639 94.0898 61.4905Z" fill="#4F1C3E"/>
<g style="mix-blend-mode:multiply" opacity="0.6">
<path d="M83.7687 61.4646C83.7687 61.4646 84.1974 60.693 85.1108 60.0901C85.1108 60.0901 86.8818 60.5374 89.6532 60.5374C92.4245 60.5374 94.444 60.0447 94.444 60.0447C94.444 60.0447 95.3823 60.693 95.5377 61.4646C95.5377 61.4646 93.2448 64.6546 89.6469 64.6546C86.0491 64.6546 83.7562 61.4646 83.7562 61.4646H83.7687Z" fill="#CE78B1"/>
</g>
<path d="M91.654 58.0283C91.3309 58.2358 91.5857 58.7933 91.8032 58.7933C92.0206 58.7933 92.4308 58.7934 92.3997 58.4108C92.3748 58.0283 92.0455 57.7689 91.6478 58.0283H91.654Z" fill="#FCCEC0"/>
<path d="M63.1823 47.609C63.1823 47.609 62.2005 44.3153 57.2978 42.2664C52.3951 40.2176 50.5434 43.2909 50.214 46.7013C49.8847 50.1117 53.7 58.748 57.4034 60.2263C61.1069 61.7045 63.1761 58.9749 63.1761 58.9749V47.609H63.1823Z" fill="url(#paint16_linear_6_151)"/>
<path style="mix-blend-mode:multiply" opacity="0.6" d="M63.1823 53.5092V56.9715C63.1823 56.9715 61.6599 53.0034 60.7341 53.0618C59.8082 53.1201 60.1873 55.7331 59.8641 56.6408C59.5348 57.5485 58.2299 56.5824 57.9379 53.6259C57.6458 50.6693 59.5907 50.7017 59.5907 50.7017C59.5907 50.7017 57.4283 45.424 54.7626 46.9542C52.0906 48.4908 53.6379 55.5191 53.6379 55.5191C53.6379 55.5191 49.9655 48.8474 50.736 46.3901C51.5065 43.9328 53.787 43.7577 57.4905 46.0853C59.3049 47.2265 61.0758 49.7875 62.4118 52.0957C62.6914 52.582 62.9524 53.0553 63.1885 53.5027L63.1823 53.5092Z" fill="url(#paint17_linear_6_151)"/>
<path style="mix-blend-mode:multiply" opacity="0.6" d="M63.1823 53.1915V55.5515C62.623 54.4298 61.1814 51.7391 60.5103 52.4329C59.6777 53.3017 60.1189 54.9031 59.4229 56.0183C58.727 57.1271 57.7265 54.1381 58.3044 52.1476C58.8823 50.1571 61.169 50.9481 61.8525 51.5122C62.0141 51.6483 62.2005 51.8493 62.3993 52.0957C62.6479 52.4069 62.9151 52.7895 63.1761 53.185L63.1823 53.1915Z" fill="url(#paint18_linear_6_151)"/>
<path d="M80.9289 52.6727C80.9289 52.6727 75.7838 54.4233 73.1989 53.9954C71.0303 53.6388 69.6446 50.4683 69.6384 48.9122C69.6384 48.6139 69.6881 48.374 69.7875 48.2249C70.9557 46.5456 76.2809 43.9392 78.8224 45.8195C80.0962 46.7596 80.6244 48.4842 80.8295 49.9625C81.0345 51.4343 80.9289 52.6727 80.9289 52.6727Z" fill="url(#paint19_linear_6_151)"/>
<path d="M79.7925 49.2561C80.0876 47.09 78.6439 45.0844 76.5679 44.7765C74.4919 44.4686 72.5698 45.975 72.2747 48.1411C71.9796 50.3072 73.4233 52.3128 75.4993 52.6207C77.5753 52.9286 79.4974 51.4222 79.7925 49.2561Z" fill="url(#paint20_linear_6_151)"/>
<path d="M79.4991 49.1367C79.7348 47.1393 78.3741 45.3208 76.4599 45.0748C74.5457 44.8289 72.8028 46.2487 72.5671 48.246C72.3314 50.2433 73.6921 52.0619 75.6063 52.3079C77.5205 52.5538 79.2634 51.134 79.4991 49.1367Z" fill="#030303"/>
<path d="M78.1695 48.8616C78.2552 47.633 77.3701 46.5646 76.1927 46.4753C75.0152 46.3859 73.9913 47.3094 73.9057 48.538C73.82 49.7666 74.7051 50.835 75.8825 50.9243C77.06 51.0137 78.0839 50.0902 78.1695 48.8616Z" fill="#030303"/>
<g style="mix-blend-mode:multiply" opacity="0.6">
<path d="M80.8295 49.9625C78.8659 48.5491 75.2867 47.8553 69.6384 48.9122C69.6384 48.6139 69.6881 48.374 69.7875 48.2249C70.9557 46.5456 76.2809 43.9392 78.8224 45.8195C80.0962 46.7596 80.6244 48.4842 80.8295 49.9625Z" fill="#CE78B1"/>
</g>
<path d="M74.8269 43.5437C71.8567 43.9846 69.9553 48.0045 69.9553 48.0045C69.9553 48.0045 73.0498 44.8599 76.7719 46.014C79.9533 47.006 80.6866 49.1456 80.6804 49.1391C80.6804 49.1391 80.7549 42.6619 74.8269 43.5372V43.5437Z" fill="#DD4D6B"/>
<path d="M70.0672 50.799C71.4404 52.368 72.6335 53.9954 75.5664 53.9565C75.5664 53.9565 73.9508 54.4493 72.1985 53.6842C70.4462 52.9191 70.0672 50.799 70.0672 50.799Z" fill="#DC6B7D"/>
<path d="M80.9351 51.0842C80.9351 51.0842 81.6994 52.0308 81.2955 52.6598C80.8916 53.2887 79.1953 53.1979 79.1953 53.1979C79.1953 53.1979 80.4877 52.8219 80.7363 52.4134C80.9848 52.0049 80.9351 51.0842 80.9351 51.0842Z" fill="#DC6B7D"/>
<path d="M69.7875 48.2249C69.7875 48.2249 70.5704 45.7028 75.4483 45.2554C79.2201 44.9118 80.6679 47.4598 80.873 47.9202C81.078 48.3805 80.6866 49.1456 80.6866 49.1456C80.6866 49.1456 78.7789 46.1372 75.2557 46.1501C71.7324 46.1696 69.7937 48.2184 69.7937 48.2184L69.7875 48.2249Z" fill="#4F1C3E"/>
<path d="M71.7697 49.165C71.7697 49.165 72.0059 48.8992 73.7271 49.6448C73.783 49.6708 73.7147 49.768 73.6525 49.7615C73.2362 49.7032 71.776 49.4827 71.7697 49.165Z" fill="url(#paint21_linear_6_151)"/>
<path d="M74.4417 49.5476C74.1931 49.768 74.3982 49.9625 74.6716 49.995C74.8704 50.0209 74.9015 49.6902 74.8207 49.6059C74.7399 49.5217 74.6032 49.4049 74.4417 49.5411V49.5476Z" fill="url(#paint22_linear_6_151)"/>
<path d="M94.5434 52.7246C94.5434 52.7246 99.6885 54.4752 102.273 54.0473C104.442 53.6907 105.828 50.5201 105.834 48.9641C105.834 48.6658 105.784 48.4259 105.685 48.2768C104.517 46.5975 99.1914 43.9911 96.6499 45.8713C95.3761 46.8115 94.8479 48.5361 94.6429 50.0144C94.4378 51.4862 94.5434 52.7246 94.5434 52.7246Z" fill="url(#paint23_linear_6_151)"/>
<path d="M103.056 49.9883C103.709 47.909 102.622 45.6715 100.63 44.9907C98.6369 44.3099 96.4925 45.4436 95.84 47.5228C95.1875 49.6021 96.274 51.8396 98.2668 52.5204C100.259 53.2012 102.404 52.0676 103.056 49.9883Z" fill="url(#paint24_linear_6_151)"/>
<path d="M101.501 51.6809C103.057 50.4917 103.394 48.2116 102.254 46.5881C101.115 44.9645 98.9296 44.6124 97.3737 45.8015C95.8177 46.9906 95.4802 49.2707 96.6198 50.8943C97.7594 52.5178 99.9447 52.87 101.501 51.6809Z" fill="#030303"/>
<path d="M97.321 49.1002C97.5075 50.3191 98.6011 51.1491 99.7693 50.9545C100.937 50.76 101.733 49.6189 101.546 48.4C101.36 47.181 100.266 46.3511 99.0982 46.5456C97.93 46.7401 97.1346 47.8813 97.321 49.1002Z" fill="#030303"/>
<g style="mix-blend-mode:multiply" opacity="0.6">
<path d="M94.6429 50.0144C96.6064 48.601 100.186 47.9072 105.834 48.9641C105.834 48.6658 105.784 48.4259 105.685 48.2768C104.517 46.5975 99.1914 43.9911 96.6499 45.8713C95.3761 46.8115 94.8479 48.5361 94.6429 50.0144Z" fill="#CE78B1"/>
</g>
<path d="M100.639 43.5956C103.609 44.0364 105.511 48.0563 105.511 48.0563C105.511 48.0563 102.416 44.9117 98.6942 46.0658C95.5127 47.0578 94.7795 49.1975 94.7857 49.191C94.7857 49.191 94.7112 42.7138 100.639 43.5891V43.5956Z" fill="#DD4D6B"/>
<path d="M105.405 50.8508C104.032 52.4198 102.839 54.0472 99.9059 54.0083C99.9059 54.0083 101.522 54.5011 103.274 53.736C105.026 52.9709 105.405 50.8508 105.405 50.8508Z" fill="#DC6B7D"/>
<path d="M94.5372 51.1361C94.5372 51.1361 93.7729 52.0827 94.1768 52.7116C94.5869 53.3405 96.2771 53.2498 96.2771 53.2498C96.2771 53.2498 94.9846 52.8737 94.7361 52.4652C94.4875 52.0568 94.5372 51.1361 94.5372 51.1361Z" fill="#DC6B7D"/>
<path d="M105.685 48.2768C105.685 48.2768 104.902 45.7546 100.024 45.3073C96.2522 44.9636 94.8044 47.5052 94.5993 47.9721C94.3943 48.4324 94.7857 49.1975 94.7857 49.1975C94.7857 49.1975 96.6934 46.189 100.217 46.202C103.74 46.2215 105.679 48.2703 105.679 48.2703L105.685 48.2768Z" fill="#4F1C3E"/>
<path d="M103.703 49.2234C103.703 49.2234 103.467 48.9576 101.745 49.7032C101.689 49.7291 101.758 49.8264 101.82 49.8199C102.236 49.7615 103.696 49.5411 103.703 49.2234Z" fill="url(#paint25_linear_6_151)"/>
<path d="M101.031 49.5994C101.279 49.8199 101.074 50.0144 100.801 50.0468C100.602 50.0727 100.571 49.7421 100.652 49.6578C100.732 49.5735 100.869 49.4568 101.031 49.593V49.5994Z" fill="url(#paint26_linear_6_151)"/>
<g style="mix-blend-mode:multiply" opacity="0.6">
<path d="M83.4394 71.7477C83.4394 71.7477 86.217 76.2928 91.4615 75.4694C95.7117 74.8015 97.5013 69.5433 97.5013 69.5433C97.5013 69.5433 91.5547 73.1547 83.4456 71.7477H83.4394Z" fill="#CE78B1"/>
</g>
<path d="M80.724 67.4815C80.724 67.4815 85.4527 67.8446 90.0012 67.1314C94.5497 66.4181 98.7876 64.6481 98.7876 64.6481C98.7876 64.6481 94.7486 72.6879 90.4859 73.3557C86.2232 74.0235 80.724 67.475 80.724 67.475V67.4815Z" fill="#842852"/>
<path d="M89.7962 66.3792C88.6155 66.5673 80.724 67.4815 80.724 67.4815C83.1411 68.4929 87.1056 68.6939 90.0634 68.2271C93.0211 67.7603 96.7619 66.3598 98.7814 64.6481C98.7814 64.6481 90.9768 66.1912 89.7962 66.3728V66.3792Z" fill="#DE4E6C"/>
<path d="M80.724 67.4815C80.724 67.4815 85.3036 71.9228 90.4797 71.1124C95.6558 70.3019 98.7814 64.6546 98.7814 64.6546C98.7814 64.6546 99.2412 72.2924 90.9271 73.5891C82.613 74.8923 80.724 67.4815 80.724 67.4815Z" fill="#EF7172"/>
<path d="M82.4887 68.0261C82.4887 68.0261 82.8739 68.5383 83.5947 69.245C83.5947 69.245 86.6271 70.7557 90.6909 70.1203C93.8103 69.634 96.824 67.0406 96.824 67.0406L97.2527 65.7179C97.2527 65.7179 90.635 69.7248 82.4887 68.0326V68.0261Z" fill="#FCDFEB"/>
<path d="M81.1092 67.6306C81.1092 67.6306 80.2331 67.3713 79.9286 66.7164C79.9286 66.7164 80.0156 66.4895 80.1399 66.1588C80.1399 66.1588 79.3569 66.2496 79.4128 67.2221C79.4128 67.2221 80.5127 67.6825 81.1403 67.8511L81.1092 67.6306Z" fill="#842852"/>
<path d="M98.3899 64.9269C98.3899 64.9269 99.1542 64.4082 99.2598 63.6885C99.2598 63.6885 99.1169 63.494 98.8994 63.2217C98.8994 63.2217 99.6699 63.0726 99.8936 64.0192C99.8936 64.0192 98.9678 64.7972 98.4209 65.1474L98.3899 64.9269Z" fill="#842852"/>
<path d="M93.8476 70.6974C93.8476 70.6974 93.3691 71.7607 94.3634 72.4869C94.3634 72.4869 96.0224 71.6505 97.1969 69.9971C97.1969 69.9971 97.085 69.1283 96.5506 68.9468C96.5506 68.9468 95.5005 69.3941 93.8414 70.6974H93.8476Z" fill="#F5A79C"/>
<g style="mix-blend-mode:multiply">
<path d="M83.1409 39.6794C83.1409 39.6794 81.6807 39.258 78.3376 39.621C77.3434 39.7313 76.1877 39.9063 74.8517 40.1851C69.0169 41.4041 65.0152 43.1287 65.0152 43.1287C65.0338 43.0185 66.3014 40.1073 68.2215 38.6161C68.2091 38.6485 68.0103 39.1412 68.1097 39.6275C68.1097 39.6275 70.241 37.3842 73.4349 36.1328C74.0315 35.8994 74.6653 35.6984 75.3239 35.5558C79.5431 34.6481 81.9852 37.6241 81.9852 37.6241C81.9852 37.6241 81.7677 36.7942 81.2519 36.3533C81.2519 36.3533 82.7619 37.0924 83.1472 39.6859L83.1409 39.6794Z" fill="#232323"/>
<g style="mix-blend-mode:multiply" opacity="0.6">
<path d="M78.3316 39.6275C77.3374 39.7377 76.1817 39.9128 74.8457 40.1916C69.0109 41.4105 65.0092 43.1352 65.0092 43.1352C65.0278 43.025 66.2954 40.1138 68.2155 38.6225C68.2031 38.655 68.0043 39.1477 68.1037 39.634C68.1037 39.634 70.235 37.3906 73.4289 36.1393C72.3415 36.9108 69.9927 38.642 68.8058 40.9307C68.8058 40.9307 71.832 39.3098 78.3316 39.634V39.6275Z" fill="#232323"/>
</g>
</g>
<g style="mix-blend-mode:multiply">
<path d="M93.3069 38.4929C93.3069 38.4929 94.4751 38.1363 97.172 38.3827C97.9735 38.454 98.9056 38.5837 99.9806 38.7911C104.691 39.6924 107.928 41.0215 107.928 41.0215C107.909 40.9308 106.859 38.6096 105.293 37.4361C105.3 37.462 105.467 37.851 105.393 38.2465C105.393 38.2465 103.653 36.47 101.068 35.5104C100.583 35.3289 100.074 35.1797 99.5394 35.076C96.1342 34.4017 94.2079 36.8266 94.2079 36.8266C94.2079 36.8266 94.3695 36.1523 94.7858 35.7957C94.7858 35.7957 93.5804 36.4116 93.3069 38.4994V38.4929Z" fill="#030303"/>
<g style="mix-blend-mode:multiply" opacity="0.6">
<path d="M97.172 38.3827C97.9736 38.454 98.9056 38.5837 99.9806 38.7912C104.691 39.6924 107.928 41.0215 107.928 41.0215C107.909 40.9308 106.859 38.6096 105.293 37.4361C105.3 37.462 105.467 37.851 105.393 38.2465C105.393 38.2465 103.653 36.47 101.068 35.5104C101.95 36.1134 103.864 37.475 104.846 39.3034C104.846 39.3034 102.392 38.039 97.172 38.3892V38.3827Z" fill="#030303"/>
</g>
</g>
<path d="M62.741 18.4648C62.741 18.4648 52.1278 9.89981 51.0776 21.1814C50.7421 24.7928 52.7678 33.2411 62.4738 41.2809L61.8711 35.9772C61.8711 35.9772 49.3253 27.9504 52.1713 20.5071C53.9671 15.8129 61.0571 19.4438 61.0571 19.4438L62.741 18.4713V18.4648Z" fill="url(#paint27_linear_6_151)"/>
<path d="M113.856 31.9833C113.222 33.1179 112.632 32.9753 112.632 32.9753L109.792 53.963C109.792 53.963 109.065 41.5078 107.002 34.1553C107.002 34.1553 103.864 26.3295 98.2158 24.3455C98.2158 24.3455 88.2613 25.5709 73.1989 24.5335C73.1989 24.5335 67.9109 26.7963 65.4876 32.3658C65.4876 32.3658 64.7978 47.5506 63.7353 56.1609C63.7353 56.1609 60.1561 51.0259 60.1561 42.0654C60.1561 42.0654 55.6076 39.6016 53.8118 36.8396C53.7558 36.7488 53.7061 36.6645 53.6564 36.5802C52.2148 33.883 52.3142 29.0073 55.5392 23.4118C57.2729 20.4034 60.9017 16.9022 60.9017 16.9022C60.9017 16.9022 60.038 14.4254 60.908 12.3831C61.0944 11.9292 61.374 11.4948 61.7655 11.1188C63.9217 9.02452 73.3356 3.2281 77.2379 3.79218C77.2379 3.79218 77.5921 2.58622 78.518 1.74982C78.7354 1.55531 78.9778 1.38025 79.2574 1.24409C80.7363 0.537369 88.0003 -1.16136 90.9581 1.24409L92.7041 3.7857C92.7041 3.7857 93.3442 3.49393 94.2327 3.33832C94.9784 3.20865 95.8981 3.17623 96.7493 3.50042C98.6197 4.20714 103.324 7.70833 104.268 11.618C104.268 11.618 108.885 13.1222 109.78 19.8199C109.78 19.8199 111.122 20.1959 112.29 21.4213C113.458 22.6468 114.496 30.8551 113.856 31.9897V31.9833Z" fill="url(#paint28_linear_6_151)"/>
<path style="mix-blend-mode:multiply" opacity="0.6" d="M113.856 31.9833C113.222 33.1179 112.632 32.9753 112.632 32.9753L109.792 53.963C109.792 53.963 109.065 41.5078 107.002 34.1553C107.002 34.1553 103.864 26.3295 98.2158 24.3455C98.2158 24.3455 98.2096 24.3455 98.2033 24.3455C97.7808 24.3974 87.9319 25.545 73.1989 24.527C73.1989 24.527 67.9109 26.7899 65.4875 32.3593C65.4875 32.3593 64.7978 47.5441 63.7352 56.1545C63.7352 56.1545 60.156 51.0194 60.156 42.0589C60.156 42.0589 55.6075 39.5951 53.8117 36.8331C53.6999 36.3857 53.6439 36.0486 53.6564 35.854C53.8428 33.2087 53.8987 31.5748 58.0495 27.8661C60.3238 25.8367 70.0422 23.5869 70.0422 23.5869C65.4005 22.5949 60.9017 19.5346 60.9017 19.5346C68.5634 21.3954 71.2415 22.8542 73.9445 23.0228C76.9893 23.2109 81.631 22.8348 82.0287 22.1735C83.1534 20.2802 76.3431 11.9876 71.7697 11.9681C67.1963 11.9487 60.9017 16.8893 60.9017 16.8893C60.9017 16.8893 60.038 14.4125 60.9079 12.3701C62.7783 10.036 69.7999 8.96618 74.9077 10.6649C80.0155 12.3636 82.6191 20.6692 83.2466 21.7002C83.8742 22.7375 88.0872 22.8348 88.7148 22.3615C89.3424 21.8882 88.982 18.776 86.7388 12.6424C84.4956 6.51535 77.2379 3.77923 77.2379 3.77923C77.2379 3.77923 77.5921 2.57327 78.5179 1.73687C81.2272 1.48401 83.9674 3.49395 87.1054 8.77816C90.2434 14.0559 90.871 22.3615 90.871 22.3615C92.3934 22.3615 94.096 19.1521 94.096 19.1521C96.4262 11.5143 92.7041 3.77923 92.7041 3.77923C92.7041 3.77923 93.3441 3.48747 94.2327 3.33186C97.5074 9.58214 95.345 18.1147 95.8856 19.1521C96.4262 20.1895 100.459 23.7749 101.534 23.2109C102.609 22.6468 104.939 16.4159 104.268 11.6115C104.268 11.6115 106.704 12.4025 108.375 15.4045C109.009 16.5327 109.537 17.9785 109.78 19.8134C109.78 19.8134 111.122 20.1895 112.29 21.4149C112.967 22.1281 113.595 25.1689 113.881 27.8337C114.092 29.7723 114.123 31.51 113.856 31.9833Z" fill="url(#paint29_linear_6_151)"/>
<path style="mix-blend-mode:multiply" d="M65.4005 25.947C65.4005 25.947 57.4717 27.8207 54.8184 34.6805C54.2902 36.0485 57.6395 40.3991 57.6395 40.3991L60.1561 42.0589C60.1561 42.0589 61.9954 31.7045 65.4005 25.947Z" fill="url(#paint30_linear_6_151)"/>
<path style="mix-blend-mode:multiply" d="M113.856 31.9832C113.222 33.1179 112.632 32.9753 112.632 32.9753L109.792 53.963C109.792 53.963 109.065 41.5078 107.002 34.1553C107.002 34.1553 103.864 26.3295 98.2158 24.3455C106.132 27.8661 106.375 25.0976 106.375 25.0976C108.686 21.136 108.375 15.4044 108.375 15.4044C109.009 16.5326 109.537 17.9785 109.78 19.8134C109.78 19.8134 111.122 20.1894 112.29 21.4148C112.29 21.4148 107.984 30.9459 108.953 31.5099C109.923 32.074 111.576 31.886 113.856 27.8596C113.856 27.8596 113.862 27.8466 113.881 27.8272C114.092 29.7658 114.123 31.5035 113.856 31.9768V31.9832Z" fill="url(#paint31_linear_6_151)"/>
<defs>
<linearGradient id="paint0_linear_6_151" x1="25.3027" y1="326.887" x2="80.5996" y2="326.887" gradientUnits="userSpaceOnUse">
<stop stop-color="#F8A796"/>
<stop offset="0.43" stop-color="#F8AB99"/>
<stop offset="0.53" stop-color="#F7A391"/>
<stop offset="0.77" stop-color="#F69785"/>
<stop offset="1" stop-color="#F69481"/>
</linearGradient>
<linearGradient id="paint1_linear_6_151" x1="35.6985" y1="271.504" x2="80.0528" y2="271.504" gradientUnits="userSpaceOnUse">
<stop stop-color="#F8A796"/>
<stop offset="0.43" stop-color="#F8AB99"/>
<stop offset="0.53" stop-color="#F7A391"/>
<stop offset="0.77" stop-color="#F69785"/>
<stop offset="1" stop-color="#F69481"/>
</linearGradient>
<linearGradient id="paint2_linear_6_151" x1="104.641" y1="156.023" x2="225.009" y2="156.023" gradientUnits="userSpaceOnUse">
<stop stop-color="#F8A796"/>
<stop offset="0.43" stop-color="#F8AB99"/>
<stop offset="0.53" stop-color="#F7A391"/>
<stop offset="0.77" stop-color="#F69785"/>
<stop offset="1" stop-color="#F69481"/>
</linearGradient>
<linearGradient id="paint3_linear_6_151" x1="193.952" y1="157.248" x2="215.247" y2="157.248" gradientUnits="userSpaceOnUse">
<stop stop-color="#F8A796"/>
<stop offset="0.43" stop-color="#F8AB99"/>
<stop offset="0.53" stop-color="#F7A391"/>
<stop offset="0.77" stop-color="#F69785"/>
<stop offset="1" stop-color="#F69481"/>
</linearGradient>
<linearGradient id="paint4_linear_6_151" x1="83.924" y1="326.602" x2="134.237" y2="326.602" gradientUnits="userSpaceOnUse">
<stop stop-color="#F8A796"/>
<stop offset="0.43" stop-color="#F8AB99"/>
<stop offset="0.53" stop-color="#F7A391"/>
<stop offset="0.77" stop-color="#F69785"/>
<stop offset="1" stop-color="#F69481"/>
</linearGradient>
<linearGradient id="paint5_linear_6_151" x1="13.5586" y1="173.243" x2="50.2761" y2="173.243" gradientUnits="userSpaceOnUse">
<stop stop-color="#F8A796"/>
<stop offset="0.43" stop-color="#F8AB99"/>
<stop offset="0.53" stop-color="#F7A391"/>
<stop offset="0.77" stop-color="#F69785"/>
<stop offset="1" stop-color="#F69481"/>
</linearGradient>
<linearGradient id="paint6_linear_6_151" x1="19.3188" y1="155.394" x2="50.2761" y2="155.394" gradientUnits="userSpaceOnUse">
<stop stop-color="#F8A796"/>
<stop offset="0.43" stop-color="#F8AB99"/>
<stop offset="0.53" stop-color="#F7A391"/>
<stop offset="0.77" stop-color="#F69785"/>
<stop offset="1" stop-color="#F69481"/>
</linearGradient>
<linearGradient id="paint7_linear_6_151" x1="13.6269" y1="231.804" x2="87.3665" y2="231.804" gradientUnits="userSpaceOnUse">
<stop stop-color="#F8A796"/>
<stop offset="0.43" stop-color="#F8AB99"/>
<stop offset="0.53" stop-color="#F7A391"/>
<stop offset="0.77" stop-color="#F69785"/>
<stop offset="1" stop-color="#F69481"/>
</linearGradient>
<linearGradient id="paint8_linear_6_151" x1="114.359" y1="59.5454" x2="114.359" y2="40.4834" gradientUnits="userSpaceOnUse">
<stop stop-color="#F9B19D"/>
<stop offset="0.21" stop-color="#F69B8E"/>
<stop offset="0.47" stop-color="#F48781"/>
<stop offset="0.74" stop-color="#F37B79"/>
<stop offset="1" stop-color="#F37777"/>
</linearGradient>
<linearGradient id="paint9_linear_6_151" x1="114.148" y1="55.8497" x2="114.148" y2="43.3232" gradientUnits="userSpaceOnUse">
<stop stop-color="#FEE8D9"/>
<stop offset="0.99" stop-color="#B07DB7"/>
</linearGradient>
<linearGradient id="paint10_linear_6_151" x1="110.395" y1="55.143" x2="110.395" y2="49.7551" gradientUnits="userSpaceOnUse">
<stop stop-color="#FEE8D9"/>
<stop offset="0.99" stop-color="#B07DB7"/>
</linearGradient>
<linearGradient id="paint11_linear_6_151" x1="83.9987" y1="96.496" x2="83.9987" y2="77.9591" gradientUnits="userSpaceOnUse">
<stop stop-color="#F9B19D"/>
<stop offset="0.21" stop-color="#F69B8E"/>
<stop offset="0.47" stop-color="#F48781"/>
<stop offset="0.74" stop-color="#F37B79"/>
<stop offset="1" stop-color="#F37777"/>
</linearGradient>
<linearGradient id="paint12_linear_6_151" x1="85.3098" y1="81.7132" x2="85.3098" y2="12.999" gradientUnits="userSpaceOnUse">
<stop stop-color="#F9B19D"/>
<stop offset="0.21" stop-color="#F69B8E"/>
<stop offset="0.47" stop-color="#F48781"/>
<stop offset="0.74" stop-color="#F37B79"/>
<stop offset="1" stop-color="#F37777"/>
</linearGradient>
<linearGradient id="paint13_linear_6_151" x1="89.6532" y1="62.5604" x2="89.6532" y2="54.9485" gradientUnits="userSpaceOnUse">
<stop stop-color="#F3797E"/>
<stop offset="0.06" stop-color="#F37A7E"/>
<stop offset="0.53" stop-color="#F48680"/>
<stop offset="1" stop-color="#F58B81"/>
</linearGradient>
<linearGradient id="paint14_linear_6_151" x1="85.1233" y1="57.6263" x2="85.956" y2="57.6263" gradientUnits="userSpaceOnUse">
<stop stop-color="#FEE8D9"/>
<stop offset="0.99" stop-color="#B07DB7"/>
</linearGradient>
<linearGradient id="paint15_linear_6_151" x1="94.0898" y1="57.6263" x2="93.2571" y2="57.6263" gradientUnits="userSpaceOnUse">
<stop stop-color="#FEE8D9"/>
<stop offset="0.99" stop-color="#B07DB7"/>
</linearGradient>
<linearGradient id="paint16_linear_6_151" x1="56.6951" y1="60.6607" x2="56.6951" y2="41.6051" gradientUnits="userSpaceOnUse">
<stop stop-color="#F9B19D"/>
<stop offset="0.21" stop-color="#F69B8E"/>
<stop offset="0.47" stop-color="#F48781"/>
<stop offset="0.74" stop-color="#F37B79"/>
<stop offset="1" stop-color="#F37777"/>
</linearGradient>
<linearGradient id="paint17_linear_6_151" x1="56.9064" y1="56.9715" x2="56.9064" y2="44.445" gradientUnits="userSpaceOnUse">
<stop stop-color="#FEE8D9"/>
<stop offset="0.99" stop-color="#B07DB7"/>
</linearGradient>
<linearGradient id="paint18_linear_6_151" x1="60.6595" y1="56.2647" x2="60.6595" y2="50.8768" gradientUnits="userSpaceOnUse">
<stop stop-color="#FEE8D9"/>
<stop offset="0.99" stop-color="#B07DB7"/>
</linearGradient>
<linearGradient id="paint19_linear_6_151" x1="74.7277" y1="54.2767" x2="76.2511" y2="45.069" gradientUnits="userSpaceOnUse">
<stop stop-color="#ECE0EF"/>
<stop offset="1" stop-color="#BFC6E5"/>
</linearGradient>
<linearGradient id="paint20_linear_6_151" x1="72.2641" y1="48.0905" x2="79.7787" y2="49.2324" gradientUnits="userSpaceOnUse">
<stop stop-color="#566596"/>
<stop offset="1" stop-color="#331C52"/>
</linearGradient>
<linearGradient id="paint21_linear_6_151" x1="72.6344" y1="49.7816" x2="73.09" y2="49.1324" gradientUnits="userSpaceOnUse">
<stop stop-color="#ECE0EF"/>
<stop offset="1" stop-color="#BFC6E5"/>
</linearGradient>
<linearGradient id="paint22_linear_6_151" x1="74.5463" y1="50.0059" x2="74.6277" y2="49.5139" gradientUnits="userSpaceOnUse">
<stop stop-color="#ECE0EF"/>
<stop offset="1" stop-color="#BFC6E5"/>
</linearGradient>
<linearGradient id="paint23_linear_6_151" x1="100.518" y1="54.247" x2="98.9949" y2="45.0393" gradientUnits="userSpaceOnUse">
<stop stop-color="#ECE0EF"/>
<stop offset="1" stop-color="#BFC6E5"/>
</linearGradient>
<linearGradient id="paint24_linear_6_151" x1="103.018" y1="48.6236" x2="95.5094" y2="49.7633" gradientUnits="userSpaceOnUse">
<stop stop-color="#566596"/>
<stop offset="1" stop-color="#331C52"/>
</linearGradient>
<linearGradient id="paint25_linear_6_151" x1="103.046" y1="49.7125" x2="102.591" y2="49.0633" gradientUnits="userSpaceOnUse">
<stop stop-color="#ECE0EF"/>
<stop offset="1" stop-color="#BFC6E5"/>
</linearGradient>
<linearGradient id="paint26_linear_6_151" x1="100.7" y1="49.9761" x2="100.618" y2="49.4841" gradientUnits="userSpaceOnUse">
<stop stop-color="#ECE0EF"/>
<stop offset="1" stop-color="#BFC6E5"/>
</linearGradient>
<linearGradient id="paint27_linear_6_151" x1="56.8938" y1="38.052" x2="56.8938" y2="21.7714" gradientUnits="userSpaceOnUse">
<stop stop-color="#92324C"/>
<stop offset="1" stop-color="#9A2743"/>
</linearGradient>
<linearGradient id="paint28_linear_6_151" x1="83.4082" y1="49.1586" x2="83.4082" y2="13.8938" gradientUnits="userSpaceOnUse">
<stop stop-color="#92324C"/>
<stop offset="1" stop-color="#9A2743"/>
</linearGradient>
<linearGradient id="paint29_linear_6_151" x1="83.8556" y1="48.4648" x2="83.8556" y2="9.60807" gradientUnits="userSpaceOnUse">
<stop stop-color="#FEE8D9"/>
<stop offset="0.99" stop-color="#827EBC"/>
</linearGradient>
<linearGradient id="paint30_linear_6_151" x1="60.0815" y1="39.7832" x2="60.0815" y2="28.2811" gradientUnits="userSpaceOnUse">
<stop stop-color="#FEE8D9"/>
<stop offset="0.99" stop-color="#B07DB7"/>
</linearGradient>
<linearGradient id="paint31_linear_6_151" x1="106.132" y1="48.5167" x2="106.132" y2="20.9934" gradientUnits="userSpaceOnUse">
<stop stop-color="#FEE8D9"/>
<stop offset="0.99" stop-color="#B07DB7"/>
</linearGradient>
</defs>
</svg>
