<svg width="143" height="471" viewBox="0 0 143 471" fill="none" xmlns="http://www.w3.org/2000/svg">
<path d="M68.2662 41.5789C68.2777 43.0947 67.3702 66.0021 69.3289 69.7917C69.3289 69.7917 93.4532 72.9331 94.1884 69.5116C94.4067 68.501 98.1345 40.5244 98.1345 40.5244L68.2662 41.5789Z" fill="url(#paint0_linear_6_156)"/>
<path d="M98.9903 30.5069C98.8639 37.7455 95.992 60.5595 96.4228 68.0287C96.4228 68.0287 100.357 67.8749 102.264 59.192C104.177 50.509 105.119 38.4979 103.143 34.2745C101.161 30.0511 98.1402 28.365 98.1402 28.365L98.9903 30.5014V30.5069Z" fill="url(#paint1_linear_6_156)"/>
<path d="M103.809 25.586C107.181 33.6484 105.613 65.387 104.102 68.7976C102.592 72.2082 100.105 71.5491 99.8404 70.7802C99.6336 70.1706 101.799 49.8664 101.811 38.8329C101.811 35.8837 101.667 33.599 101.276 32.528L103.804 25.586H103.809Z" fill="url(#paint2_linear_6_156)"/>
<path d="M96.8536 36.6416C94.6996 51.6074 92.8271 67.0896 94.1942 69.5061C95.5612 71.9226 97.5486 65.733 98.9961 55.699C99.8462 49.817 101.363 35.8837 101.363 35.8837L96.8536 36.6416Z" fill="url(#paint3_linear_6_156)"/>
<path d="M60.0927 36.7789C57.9387 45.5662 56.5544 59.2798 57.7836 67.0566C58.3178 70.4342 59.2311 71.593 60.5981 71.2086C61.9652 70.8242 64.7452 65.4035 64.2627 57.786C63.7745 50.1685 66.6809 35.0214 66.6809 35.0214L60.0984 36.7789H60.0927Z" fill="url(#paint4_linear_6_156)"/>
<path d="M69.1738 57.786C69.662 65.409 66.8762 70.8297 65.5091 71.2086C64.1478 71.5876 64.7854 70.7253 64.2512 67.3532C63.8032 64.4973 63.493 60.8012 63.3897 56.8304C63.2116 49.9928 63.6424 42.3423 65.0094 36.7844L71.5919 35.0269C71.5919 35.0269 68.6855 50.1685 69.1738 57.7915V57.786Z" fill="url(#paint5_linear_6_156)"/>
<path style="mix-blend-mode:multiply" d="M69.1738 57.786C68.2318 54.2821 63.8434 56.6437 63.3897 56.8249C63.2116 49.9873 63.6424 42.3368 65.0094 36.7789L71.5919 35.0214C71.5919 35.0214 68.6855 50.163 69.1738 57.786Z" fill="url(#paint6_linear_6_156)"/>
<path d="M61.6895 25.5311C55.4976 39.3931 54.0501 63.1462 54.4866 67.0621C54.9232 70.9724 56.6521 72.6311 57.5079 71.9336C58.3638 71.2361 58.5131 57.9013 60.6671 51.3273C62.1375 46.8348 63.2748 36.7569 63.8492 30.8254C64.1134 28.0739 64.257 26.2176 64.257 26.2176L61.6895 25.5421V25.5311Z" fill="url(#paint7_linear_6_156)"/>
<path d="M60.0926 34.3514C57.9387 47.2193 54.4866 67.0566 54.4866 67.0566C54.4866 67.0566 49.8742 39.6183 51.5055 33.4562C53.1368 27.2996 58.6165 20.7256 58.6165 20.7256L60.0926 34.3459V34.3514Z" fill="url(#paint8_linear_6_156)"/>
<path style="mix-blend-mode:multiply" d="M101.363 35.8892C101.363 35.8892 100.593 42.9684 99.8461 49.1635C99.5417 51.6569 99.243 54.013 99.0018 55.7045C97.5486 65.744 95.5669 71.9336 94.1999 69.5116C93.4474 68.1715 93.6772 62.8442 94.4009 55.8144C94.9868 50.1301 95.8943 43.3364 96.8536 36.6416L101.363 35.8837V35.8892Z" fill="url(#paint9_linear_6_156)"/>
<path style="mix-blend-mode:multiply" d="M101.363 35.8892C101.363 35.8892 100.593 42.9684 99.8461 49.1635C96.2275 48.3342 94.4009 55.8144 94.4009 55.8144C94.9868 50.1301 95.8943 43.3364 96.8536 36.6416L101.363 35.8837V35.8892Z" fill="url(#paint10_linear_6_156)"/>
<path d="M73.4931 52.7718L72.1261 73.1144L56.6635 74.5039L77.2669 95.9668L100.306 81.2975L90.8224 75.4155L91.1843 45.9067L73.4931 52.7718Z" fill="url(#paint11_linear_6_156)"/>
<path d="M76.3536 3.68917C76.3536 3.68917 52.6715 6.47914 51.092 33.3518C49.5066 60.2245 70.3972 65.1124 83.3497 61.8611C96.3022 58.6098 103.775 44.2755 104.82 36.2242C105.871 28.1728 97.9277 2.16787 76.3536 3.68917Z" fill="url(#paint12_linear_6_156)"/>
<path d="M67.1232 39.7666C67.7378 39.5359 64.6189 34.9445 60.5981 34.4777C55.7388 33.912 55.0668 38.119 55.1701 38.9592C55.2735 39.794 64.1536 40.8705 67.1232 39.7721V39.7666Z" fill="url(#paint13_linear_6_156)"/>
<path d="M57.3356 39.0471C57.37 39.4316 57.4907 39.7885 57.6745 40.1016C57.7147 40.173 62.4879 40.5519 62.5281 40.508C62.9876 39.9753 63.2346 39.2888 63.1656 38.5583C63.022 37.059 61.6033 35.9496 59.995 36.0869C58.3867 36.2242 57.1977 37.5478 57.3356 39.0471Z" fill="url(#paint14_linear_6_156)"/>
<path style="mix-blend-mode:multiply" d="M58.358 38.9592C58.4499 39.9313 59.3689 40.6508 60.4143 40.5629C61.4597 40.475 62.2294 39.6128 62.1375 38.6407C62.0455 37.6686 61.1265 36.9491 60.0811 37.037C59.0357 37.1249 58.2661 37.9871 58.358 38.9592Z" fill="url(#paint15_linear_6_156)"/>
<path d="M66.8704 38.8055C66.8704 38.8055 64.2799 32.2205 59.8801 31.9788C55.4803 31.7427 55.2563 38.0091 55.2563 38.0091C55.2563 38.0091 55.9743 34.659 60.1099 34.5271C64.2455 34.3898 66.8704 38.8 66.8704 38.8V38.8055Z" fill="url(#paint16_linear_6_156)"/>
<path d="M67.014 39.0636L66.3937 39.9698C66.3937 39.9698 67.284 39.9753 67.3529 39.7336C67.4218 39.4865 67.014 39.0636 67.014 39.0636Z" fill="#D66C7C"/>
<path d="M65.8193 40.0961C65.8193 40.0961 62.4591 40.8814 59.4608 40.5629C56.4625 40.2443 55.3654 39.1569 55.3654 39.1569C55.3654 39.1569 60.1616 40.486 65.825 40.0961H65.8193Z" fill="#D66C7C"/>
<path d="M59.0702 37.0535C59.2713 37.2017 58.4097 37.3116 57.7376 37.1194C57.1345 36.9436 56.8244 36.6086 56.8703 36.5372C56.922 36.4713 58.2718 36.4768 59.0702 37.0535Z" fill="white"/>
<path d="M59.5815 37.1743C59.817 37.07 60.1214 37.1743 60.1444 37.3006C60.1673 37.4269 59.8801 37.6137 59.7308 37.5697C59.5815 37.5313 59.4493 37.2347 59.5815 37.1743Z" fill="white"/>
<g style="mix-blend-mode:multiply" opacity="0.6">
<path d="M67.014 39.0636C67.014 39.0636 64.0502 35.8672 60.5751 35.5157C57.1001 35.1697 55.6239 37.1853 55.6239 37.1853C55.6239 37.1853 55.8709 34.7193 60.3741 34.6589C64.8831 34.5985 67.014 39.0581 67.014 39.0581V39.0636Z" fill="#C978B1"/>
</g>
<path d="M67.014 39.0636C67.014 39.0636 64.5269 34.7248 59.8686 34.7852C55.7101 34.8402 55.1874 38.432 55.1874 38.432C55.1874 38.432 54.4636 35.3839 57.2379 34.4228C59.8744 33.5056 64.6476 34.5106 67.0198 39.0636H67.014Z" fill="#401432"/>
<path d="M79.9264 38.5583C79.1797 38.3826 82.0746 32.6324 86.6525 31.523C92.1781 30.1829 93.6026 34.9555 93.6141 35.9386C93.6256 36.9217 83.5278 39.4096 79.9264 38.5583Z" fill="url(#paint17_linear_6_156)"/>
<path d="M87.4336 36.4823C87.4681 37.3336 87.1062 38.1134 86.5146 38.6517C86.4284 38.7286 82.6891 38.767 82.5915 38.6791C82.0343 38.1903 81.6725 37.4873 81.6438 36.6965C81.5863 35.1422 82.8327 33.8296 84.4295 33.7692C86.0263 33.7088 87.3762 34.9226 87.4336 36.4768V36.4823Z" fill="url(#paint18_linear_6_156)"/>
<path style="mix-blend-mode:multiply" d="M86.417 36.5207C86.4572 37.5313 85.6473 38.3826 84.6077 38.421C83.568 38.4594 82.695 37.6741 82.6605 36.6635C82.6203 35.653 83.4302 34.8017 84.4698 34.7633C85.5095 34.7248 86.3825 35.5102 86.417 36.5207Z" fill="url(#paint19_linear_6_156)"/>
<path d="M80.0756 37.4105C80.0756 37.4105 82.0515 29.4305 87.1004 28.5408C92.1493 27.6456 93.3727 34.8622 93.3727 34.8622C93.3727 34.8622 92.0287 31.0946 87.2268 31.523C82.4249 31.9514 80.0699 37.416 80.0699 37.416L80.0756 37.4105Z" fill="url(#paint20_linear_6_156)"/>
<path d="M79.9436 37.729L80.7994 38.6901C80.7994 38.6901 79.7713 38.822 79.6564 38.5528C79.5415 38.2782 79.9436 37.7345 79.9436 37.7345V37.729Z" fill="#D66C7C"/>
<path d="M81.4887 38.756C81.4887 38.756 85.4979 39.1954 88.9098 38.399C92.3217 37.6082 93.4303 36.1967 93.4303 36.1967C93.4303 36.1967 88.0942 38.4045 81.4887 38.7505V38.756Z" fill="#D66C7C"/>
<path d="M83.2866 37.1744C82.9936 37.092 82.6662 37.2457 82.6605 37.394C82.6547 37.5423 83.0166 37.7181 83.1774 37.6467C83.3382 37.5808 83.4474 37.2183 83.2866 37.1689V37.1744Z" fill="white"/>
<g style="mix-blend-mode:multiply" opacity="0.6">
<path d="M79.9435 37.729C79.9435 37.729 82.8787 33.6155 86.842 32.7257C90.8053 31.836 92.8214 33.9615 92.8214 33.9615C92.8214 33.9615 92.1608 31.1495 86.9396 31.7152C81.7242 32.2809 79.9435 37.7345 79.9435 37.7345V37.729Z" fill="#C978B1"/>
</g>
<path d="M79.9435 37.729C79.9435 37.729 82.1492 32.3633 87.5485 31.7811C92.3676 31.2594 93.5221 35.34 93.5221 35.34C93.5221 35.34 93.884 31.7152 90.5353 30.9957C87.3474 30.3092 81.9826 32.1436 79.9493 37.7345L79.9435 37.729Z" fill="#401432"/>
<path d="M67.5941 46.4229C67.5941 46.4229 67.686 46.6481 68.5993 46.6207C69.5126 46.5987 70.4144 47.3072 71.9538 47.2138C73.4989 47.1204 74.2226 46.3131 75.1301 46.2252C76.0377 46.1374 76.1813 45.9012 76.1813 45.9012C76.2789 45.3245 76.1583 44.7753 75.9572 44.314C75.9572 44.314 75.9572 44.303 75.9515 44.2975C75.5954 43.4847 75.0153 42.9355 75.0153 42.9355C72.7809 42.0677 70.4546 42.2105 68.3523 43.3419C68.3523 43.3419 68.0307 43.7373 67.7779 44.3305V44.336C67.5367 44.9126 67.3529 45.665 67.5941 46.4284V46.4229Z" fill="url(#paint21_linear_6_156)"/>
<path d="M69.6964 46.8349C69.6964 46.8349 68.9554 46.3021 68.1053 46.6042L69.6964 46.8349Z" fill="#812852"/>
<path d="M75.6012 46.1538C75.6012 46.1538 74.6994 45.9561 73.8608 46.6811L75.6012 46.1538Z" fill="#812852"/>
<g style="mix-blend-mode:multiply" opacity="0.6">
<path d="M67.5941 46.423C67.5941 46.423 67.686 46.6481 68.5992 46.6207C69.5125 46.5987 70.4143 47.3072 71.9537 47.2138C73.4988 47.1204 74.2225 46.3131 75.1301 46.2252C76.0376 46.1374 76.1812 45.9012 76.1812 45.9012C76.2788 45.3245 76.1582 44.7753 75.9572 44.314C75.9974 44.4513 76.2501 45.3355 75.9055 45.5772C75.5264 45.8353 73.2805 45.8353 71.8733 45.9232C70.466 46.011 68.0766 46.1593 67.7836 45.8188C67.5022 45.4948 67.7549 44.4348 67.7836 44.336C67.5424 44.9126 67.3586 45.665 67.5998 46.4284L67.5941 46.423Z" fill="#C978B1"/>
</g>
<path style="mix-blend-mode:multiply" opacity="0.6" d="M68.3581 43.3309C68.3581 43.3309 68.9555 44.7808 68.9669 45.8243C68.9669 45.8243 69.2714 44.7863 68.6683 43.1717L68.3581 43.3309Z" fill="url(#paint22_linear_6_156)"/>
<path style="mix-blend-mode:multiply" opacity="0.6" d="M74.9405 42.93C74.9405 42.93 74.5385 44.4403 74.6648 45.4783C74.6648 45.4783 74.2226 44.4897 74.6074 42.8092L74.9348 42.93H74.9405Z" fill="url(#paint23_linear_6_156)"/>
<g style="mix-blend-mode:multiply" opacity="0.6">
<path d="M75.9055 45.5717C75.9055 45.5717 76.1353 45.7859 76.187 45.8957C76.2387 46.011 74.3202 47.9772 72.0226 48.1145C69.7251 48.2518 67.6573 46.6426 67.5998 46.4175C67.5424 46.1978 67.8985 45.8902 67.8985 45.8902C67.8985 45.8902 69.7078 46.0495 71.879 45.9122C74.0445 45.7804 75.9113 45.5662 75.9113 45.5662L75.9055 45.5717Z" fill="#C978B1"/>
</g>
<path d="M70.0065 45.5223C70.3225 45.3246 69.7136 44.8468 69.5585 44.8742C69.4034 44.9072 69.346 45.2422 69.4437 45.4509C69.5413 45.6596 69.8744 45.6047 70.0065 45.5223Z" fill="#FBC9B8"/>
<path d="M107.755 37.7839C107.635 38.388 107.503 38.9318 107.353 39.4151L107.342 39.437C106.291 42.908 104.608 43.7538 103.959 45.3245C103.396 46.6811 101.121 49.4271 98.7663 46.6591C98.7605 46.6591 98.7548 46.6536 98.7548 46.6536C98.7548 46.6536 99.6221 35.2026 100.461 33.1102C100.461 33.1102 101.667 29.9687 103.942 29.4579C106.865 28.7989 108.789 32.4566 107.75 37.7894L107.755 37.7839Z" fill="url(#paint24_linear_6_156)"/>
<path style="mix-blend-mode:multiply" opacity="0.6" d="M99.4153 39.5469C99.4153 39.5469 103.884 33.0882 106.073 32.6269C108.261 32.171 107.267 37.5972 106.865 39.4096C106.457 41.2219 105.82 42.2984 105.82 42.2984C105.82 42.2984 106.331 40.162 106.406 38.4375C106.515 35.9606 105.647 33.8516 104.728 34.0713C103.809 34.291 102.632 37.4214 102.557 37.7784C102.483 38.1354 103.189 38.756 103.183 40.6782C103.183 42.6005 102.264 44.7039 101.742 44.6874C101.219 44.671 101.414 43.1112 101.38 41.3153C101.345 39.5194 99.8863 39.8984 99.2603 41.0737L99.4211 39.5469H99.4153Z" fill="url(#paint25_linear_6_156)"/>
<path style="mix-blend-mode:multiply" opacity="0.6" d="M99.2603 41.0736C99.2603 41.0736 100.409 39.3436 101.133 40.107C101.856 40.8704 101.391 43.0288 101.937 43.2815C102.483 43.5286 103.178 41.7766 103.005 40.1894C102.833 38.6022 102.144 37.1853 101.213 37.4708L99.4268 39.5523L99.266 41.0791L99.2603 41.0736Z" fill="url(#paint26_linear_6_156)"/>
<path style="mix-blend-mode:multiply" d="M107.348 39.4425C106.297 42.9135 104.614 43.7593 103.965 45.33C103.402 46.6866 101.127 49.4326 98.772 46.6646C98.9099 46.7689 100.26 47.7795 101.604 47.2852C103.017 46.7635 103.448 45.4838 104.028 44.4897C104.608 43.4957 106.136 42.7927 107.348 39.448V39.4425Z" fill="url(#paint27_linear_6_156)"/>
<path d="M71.0291 242.407L64.4064 460.184L47.9386 450.002L26.2726 232.34L71.0291 242.407Z" fill="#F8AEA0"/>
<path opacity="0.2" d="M65.3771 428.292L71.0291 242.407L26.2726 232.335L45.7617 428.066C52.2982 427.863 58.9324 428.187 65.3828 428.292H65.3771Z" fill="#201829"/>
<path d="M47.3929 448.437L65.6814 452.808L67.6401 465.923L5.58307 468.109C5.58307 468.109 9.27639 461.865 47.3871 448.437H47.3929Z" fill="#2B2238"/>
<path d="M5.58881 468.115L67.6458 465.929L68.2949 470.3L6.23787 470.927L5.58881 468.115Z" fill="#2B2238"/>
<path d="M42.0453 450.183C44.0098 452.017 45.3194 454.346 46.876 456.482C47.0138 456.675 47.347 456.493 47.2034 456.301C45.6295 454.137 44.3027 451.787 42.3153 449.93C42.143 449.766 41.873 450.024 42.0453 450.188V450.183Z" fill="#2B2238"/>
<path d="M38.151 451.287C40.1154 453.121 41.425 455.45 42.9816 457.586C43.1195 457.779 43.4526 457.597 43.309 457.405C41.7352 455.241 40.4083 452.891 38.421 451.034C38.2486 450.87 37.9787 451.128 38.151 451.292V451.287Z" fill="#2B2238"/>
<path d="M33.8832 452.682C35.8476 454.516 37.1572 456.845 38.7138 458.981C38.8516 459.173 39.1848 458.992 39.0412 458.8C37.4674 456.636 36.1405 454.286 34.1531 452.429C33.9808 452.264 33.7109 452.523 33.8832 452.687V452.682Z" fill="#2B2238"/>
<path d="M125.722 242.407L119.1 460.184L102.632 450.002L80.9603 232.34L125.722 242.407Z" fill="#F8AEA0"/>
<path opacity="0.2" d="M120.07 428.292L125.722 242.407L80.966 232.335L100.455 428.066C106.992 427.863 113.626 428.187 120.076 428.292H120.07Z" fill="#201829"/>
<path d="M102.086 448.437L120.375 452.808L122.334 465.923L60.2765 468.109C60.2765 468.109 63.9698 461.865 102.081 448.437H102.086Z" fill="#2B2238"/>
<path d="M60.2765 468.115L122.334 465.929L122.988 470.3L60.9313 470.927L60.2765 468.115Z" fill="#2B2238"/>
<path d="M96.7387 450.183C98.7031 452.017 100.013 454.346 101.569 456.482C101.707 456.675 102.04 456.493 101.897 456.301C100.323 454.137 98.9961 451.787 97.0087 449.93C96.8364 449.766 96.5664 450.024 96.7387 450.188V450.183Z" fill="#2B2238"/>
<path d="M92.8444 451.287C94.8088 453.121 96.1184 455.45 97.675 457.586C97.8128 457.779 98.146 457.597 98.0024 457.405C96.4285 455.241 95.1017 452.891 93.1143 451.034C92.942 450.87 92.672 451.128 92.8444 451.292V451.287Z" fill="#2B2238"/>
<path d="M88.5709 452.682C90.5353 454.516 91.8449 456.845 93.4015 458.981C93.5394 459.173 93.8725 458.992 93.7289 458.8C92.1551 456.636 90.8283 454.286 88.8409 452.429C88.6686 452.264 88.3986 452.523 88.5709 452.687V452.682Z" fill="#2B2238"/>
<path d="M16.3299 113.366C16.3299 113.366 17.3695 167.073 30.0119 167.43C42.6542 167.792 33.441 124.718 33.441 124.718L16.3299 113.366Z" fill="#F7A093"/>
<path d="M34.0153 127.458L38.4668 182.703L108.933 173.778L89.2141 138.865L34.0153 127.458Z" fill="#069383"/>
<path d="M36.1291 149.449C36.1291 149.449 57.9157 158 96.1815 151.706C96.1815 151.706 118.083 181.605 123.31 219.912C126.98 246.801 138.215 414.122 138.215 414.122L86.3479 417.884L56.6463 204.331L80.1618 224.316L73.1944 417.522L18.8974 421.586C18.8974 421.586 0.0344534 249.3 36.1291 149.449Z" fill="#069383"/>
<path opacity="0.2" d="M93.3497 145.758L89.2141 138.865L34.0153 127.458L35.8132 149.789C51.8156 151.041 74.5557 151.31 93.344 145.758H93.3497Z" fill="#201829"/>
<path d="M63.6825 74.1743C63.6825 74.1743 54.8197 71.3239 47.3814 73.0319C39.9488 74.74 26.33 95.2583 22.6252 104.282C18.9204 113.305 16.5711 127.513 16.5711 127.513C16.5711 127.513 72.195 151.794 95.5152 143.643L109.875 116.919C109.875 116.919 131.093 87.7946 115.016 84.7904L100.311 81.303C100.311 81.303 64.142 92.4519 63.6883 74.1743H63.6825Z" fill="#F2D7C3"/>
<path opacity="0.1" d="M29.4317 91.9466C48.2602 111.295 73.6424 125.706 99.2085 136.767L95.5152 143.638C72.1892 151.788 16.5711 127.508 16.5711 127.508C16.5711 127.508 18.9204 113.305 22.6252 104.276C23.9175 101.135 26.4161 96.5929 29.4317 91.9466Z" fill="#201829"/>
<path d="M89.1682 111.866L75.9917 140.546L39.966 125.624C39.966 125.624 44.0672 115.079 41.402 113.371C34.5036 108.95 14.1357 108.401 35.5604 114.47C35.5604 114.47 -0.0344715 111.054 32.43 118.819C32.43 118.819 26.6976 131.671 31.6603 135.158C36.6231 138.64 76.681 165.914 86.3652 166.738C96.0494 167.561 111.742 123.658 111.742 123.658L89.1682 111.872V111.866Z" fill="url(#paint28_linear_6_156)"/>
<path d="M83.407 116.183L115.401 133.016C115.401 133.016 133.459 92.5947 115.016 84.7905C96.572 76.9808 83.407 116.183 83.407 116.183Z" fill="#F2D7C3"/>
<path opacity="0.2" d="M66.0491 226.524C65.1817 220.889 64.6992 217.649 64.6992 217.649C47.8869 208.993 34.9172 198.498 25.2502 188.728C4.3539 288.722 18.8974 421.586 18.8974 421.586L73.1945 417.522L76.0492 338.37C71.5287 298.031 68.0537 254.226 66.0491 226.524Z" fill="#201829"/>
<path d="M15.3821 399.837L77.8585 412.233L76.928 424.689L17.4729 424.299L15.3821 399.837Z" fill="#0B7A71"/>
<path d="M81.0119 408.185L143 413.771L142.075 426.227L82.6202 425.837L81.0119 408.185Z" fill="#069383"/>
<path d="M0 87.1521L35.1584 97.4991L38.3462 142.94L2.12524 131.665L0 87.1521Z" fill="#171324"/>
<path d="M33.0446 122.472L33.7626 118.363C33.7626 118.363 2.75132 117.529 33.0446 122.472Z" fill="#FAC0B2"/>
<path d="M32.2577 127.013L33.0274 122.614C27.8808 122.362 10.6664 121.791 32.2577 127.013Z" fill="#FAC0B2"/>
<path d="M33.0445 122.472L33.0215 122.614C33.8429 122.653 34.3656 122.686 34.3656 122.686C33.8946 122.609 33.4868 122.543 33.0445 122.472Z" fill="#FAC0B2"/>
<path d="M48.2142 129.04L39.966 125.624C39.966 125.624 44.0672 115.079 41.402 113.371C34.5036 108.95 14.1357 108.401 35.5604 114.47C35.5604 114.47 -0.0344696 111.054 32.43 118.819C32.43 118.819 26.6976 131.671 31.6603 135.158C32.9585 136.07 36.6805 138.618 41.603 141.886C43.4813 137.459 45.6697 133.159 48.2142 129.046V129.04Z" fill="url(#paint29_linear_6_156)"/>
<path d="M33.0446 122.472L33.7626 118.363C33.7626 118.363 2.75132 117.529 33.0446 122.472Z" fill="url(#paint30_linear_6_156)"/>
<path d="M32.2577 127.013L33.0274 122.614C27.8808 122.362 10.6664 121.791 32.2577 127.013Z" fill="url(#paint31_linear_6_156)"/>
<path d="M33.0445 122.472L33.0215 122.614C33.8429 122.653 34.3656 122.686 34.3656 122.686C33.8946 122.609 33.4868 122.543 33.0445 122.472Z" fill="url(#paint32_linear_6_156)"/>
<path d="M47.502 18.4244C47.749 19.3471 48.3923 20.3411 48.3923 20.3411C47.5307 23.0432 47.8064 25.6519 47.8122 26.1078C47.8122 26.7833 48.7886 27.706 48.7886 27.706C48.2143 29.5458 47.6226 33.8791 47.6226 33.8791L49.656 35.3125L51.046 41.3318C51.046 41.3318 51.3562 36.658 51.3562 31.9953C51.3562 27.3325 54.2339 20.3411 54.2339 20.3411C66.8532 13.2234 84.6822 14.5744 84.6822 14.5744L83.5737 12.1195C86.0091 12.8554 91.5462 13.1026 91.5462 13.1026L89.1108 10.027C90.9603 10.8618 94.1137 12.5589 94.2114 12.6083C93.7806 10.6476 92.0976 8.92861 92.0976 8.92861C95.3084 10.0325 94.9236 15.1182 94.9236 15.1182C96.8076 15.1182 98.8237 14.0802 98.8237 14.0802C97.4107 15.1182 96.3251 15.92 96.3251 15.92C98.0598 16.1067 98.9099 16.3813 98.9099 16.3813C97.1637 16.6559 95.3372 17.9466 95.3372 17.9466C95.3372 17.9466 100.317 23.2849 100.851 26.2286C101.385 29.1724 102.712 38.6791 102.712 38.6791L105.044 34.1921C105.28 32.6763 104.665 28.3485 104.665 28.3485C106.009 25.6849 106.411 21.2638 105.665 19.9731C104.918 18.6825 103.947 18.9297 103.947 18.9297C104.39 16.2935 103.229 13.0422 102.178 11.8174C102.035 11.6472 101.885 11.5044 101.736 11.3891C100.811 10.6421 99.8921 10.7794 99.8921 10.7794C99.8921 10.7794 100.076 9.36797 99.3005 8.07734C99.0822 7.71486 98.8352 7.39632 98.571 7.11074C96.7214 5.12261 93.9242 4.80407 93.4876 4.70521C92.9879 4.58988 92.1608 5.13359 92.1608 5.13359C90.317 2.57978 88.1458 1.55277 86.6237 1.1134C86.6237 1.1134 86.6179 1.1134 86.6122 1.1134C86.5203 1.08594 86.4284 1.06397 86.3365 1.04201C86.3307 1.04201 86.3193 1.04201 86.3135 1.03651C86.1355 0.992578 85.9746 0.959625 85.8253 0.932165C85.8138 0.932165 85.8023 0.932165 85.7908 0.926673C85.4404 0.860768 85.159 0.827816 84.9694 0.800355C83.1314 0.569689 82.6891 1.88778 82.6891 1.88778C79.26 0.168768 74.6075 -0.138787 74.1077 0.0479427C73.608 0.234673 73.0911 1.44293 73.0566 1.51432C71.075 1.04201 69.639 0.855276 68.6051 0.816832C67.2438 0.767403 66.5947 0.970609 66.3592 1.11889C65.5895 1.6022 65.4517 2.09648 65.4747 2.42051C65.4919 2.66216 65.5838 2.80496 65.5838 2.80496C64.4293 2.68413 63.4183 2.67315 62.5338 2.73356C59.4263 2.94226 57.9329 4.04067 57.7204 4.32626C57.4447 4.69423 57.1288 6.67137 57.1288 6.67137C55.8134 6.68785 54.768 6.85261 53.9409 7.11074C51.4653 7.88512 50.8794 9.4888 50.5061 10.362C50.2935 10.8618 50.3625 13.2948 50.3625 13.2948C47.9271 14.2175 47.3469 17.8258 47.5078 18.4354L47.502 18.4244Z" fill="url(#paint33_linear_6_156)"/>
<path style="mix-blend-mode:multiply" d="M57.123 6.66038C57.123 6.66038 70.3914 6.29241 83.5679 12.1195C86.0033 12.8554 91.5404 13.1026 91.5404 13.1026C91.5404 13.1026 82.3789 9.57666 74.8199 7.82469C67.261 6.07822 61.3103 5.16653 59.9547 4.60634C59.2999 4.33174 62.4361 2.77199 62.5223 2.72806C59.4148 2.93676 57.9214 4.03517 57.7089 4.32076C57.4332 4.68872 57.1172 6.66587 57.1172 6.66587L57.123 6.66038Z" fill="url(#paint34_linear_6_156)"/>
<path style="mix-blend-mode:multiply" d="M47.502 18.4244C47.749 19.3471 48.3923 20.3411 48.3923 20.3411C47.5307 23.0432 47.8064 25.652 47.8122 26.1078C47.8122 26.7833 48.7886 27.706 48.7886 27.706C48.2143 29.5458 47.6226 33.8791 47.6226 33.8791L49.656 35.3125L51.046 41.3318C51.046 41.3318 51.3562 36.6581 51.3562 31.9953C51.3562 27.3325 54.2339 20.3411 54.2339 20.3411C66.8532 13.2234 84.6822 14.5745 84.6822 14.5745C79.5644 12.8884 56.5831 16.0354 52.5854 17.4853C52.0799 17.672 49.7536 18.04 49.1735 17.4853C49.1735 17.4853 49.8283 14.7392 53.5676 13.5365C57.3068 12.3337 67.6056 11.1364 72.3386 11.3232C72.3386 11.3232 62.8727 9.46684 55.733 10.027C48.6738 10.5817 53.826 7.18214 53.9409 7.10526C51.4653 7.87964 50.8794 9.47783 50.5061 10.3566C50.2935 10.8563 50.3625 13.2893 50.3625 13.2893C47.9271 14.212 47.3469 17.8203 47.5078 18.4299L47.502 18.4244Z" fill="url(#paint35_linear_6_156)"/>
<path style="mix-blend-mode:multiply" d="M74.1077 0.0367126C74.8717 1.33833 85.9344 6.73154 86.279 6.90179H86.2848C86.2848 6.90179 86.2848 6.90179 86.279 6.90179C85.9803 6.79195 77.5713 3.73836 73.0566 1.50859L74.1077 0.0367126Z" fill="url(#paint36_linear_6_156)"/>
<path style="mix-blend-mode:multiply" d="M65.4689 2.40955L65.578 2.79399C73.2461 5.06222 89.105 10.0216 89.105 10.0216C90.9545 10.8563 94.1079 12.5534 94.2056 12.6028C94.0849 12.449 87.02 3.39263 85.9516 2.34365C85.0211 1.42647 86.9338 1.27818 86.6179 1.10244C86.6179 1.10244 86.6121 1.10244 86.6064 1.10244C86.5604 1.08047 86.4743 1.05301 86.3307 1.03104C86.3249 1.03104 86.3135 1.03104 86.3077 1.02555C86.302 1.02555 86.2905 1.02555 86.2847 1.02555C86.1699 1.00358 86.009 0.970629 85.8195 0.921201C85.808 0.921201 85.7965 0.921201 85.785 0.915709C85.4346 0.849804 85.1532 0.816851 84.9636 0.789391C83.1256 0.558724 82.6833 1.87682 82.6833 1.87682C85.9286 4.01323 88.8006 7.47872 90.3399 9.53276C89.8689 9.1593 89.4324 8.82428 89.105 8.57714C87.6116 7.45676 69.7596 2.76653 68.3466 2.21184C66.9336 1.65714 68.5993 0.805867 68.5993 0.805867C67.238 0.756439 66.5889 0.959645 66.3534 1.10793C65.5837 1.59123 65.4459 2.08552 65.4689 2.40955Z" fill="url(#paint37_linear_6_156)"/>
<path style="mix-blend-mode:multiply" d="M94.9178 15.1182C94.9178 15.1182 97.9563 12.4271 99.8805 10.7685C99.8805 10.7685 100.064 9.357 99.2889 8.06637C99.0706 7.70389 98.8236 7.38535 98.5594 7.09976C99.0649 9.93916 94.9178 15.1127 94.9178 15.1127V15.1182Z" fill="url(#paint38_linear_6_156)"/>
<path style="mix-blend-mode:multiply" d="M95.3371 17.9466C95.3371 17.9466 100.317 23.2849 100.851 26.2287C101.385 29.1724 102.712 38.6792 102.712 38.6792L105.044 34.1921C105.28 32.6763 104.665 28.3486 104.665 28.3486C106.009 25.6849 106.411 21.2638 105.665 19.9732C104.918 18.6826 103.947 18.9297 103.947 18.9297C104.389 16.2935 103.229 13.0422 102.178 11.8175C102.034 11.6472 101.885 11.5044 101.736 11.3891C101.787 11.5099 102.954 14.3823 101.736 15.1237C100.489 15.8816 96.3308 15.9255 96.3308 15.9255C98.0655 16.1123 98.9156 16.3869 98.9156 16.3869C97.1694 16.6615 95.3428 17.9521 95.3428 17.9521L95.3371 17.9466Z" fill="url(#paint39_linear_6_156)"/>
<g style="mix-blend-mode:soft-light">
<path d="M74.8429 5.60039C74.8429 5.60039 70.6729 5.1061 68.8463 6.52305L74.3317 7.70934C74.3317 7.70934 75.4518 5.78162 78.3467 6.68232L74.8372 5.60039H74.8429Z" fill="#FDD7B9"/>
</g>
<g style="mix-blend-mode:soft-light">
<path d="M72.6315 8.50574C72.6315 8.50574 70.0065 7.88513 67.9674 7.58307C67.9674 7.58307 64.636 7.71488 63.8088 10.1643L66.0777 10.3895C66.0777 10.3895 67.7319 8.50574 72.6315 8.50574Z" fill="#FDD7B9"/>
</g>
<g style="mix-blend-mode:soft-light">
<path d="M62.8555 11.8779C62.8555 11.8779 60.1673 12.6577 59.2483 16.0683L61.3161 15.7443C61.3161 15.7443 63.0105 12.8005 65.0209 11.6527L62.8555 11.8779Z" fill="#FDD7B9"/>
</g>
<g style="mix-blend-mode:soft-light">
<path d="M79.3116 5.35878L81.8562 6.10021C81.8562 6.10021 84.395 6.04529 88.2147 6.90754L86.9453 5.52354C86.9453 5.52354 84.1825 4.49103 79.3059 5.36427L79.3116 5.35878Z" fill="#FDD7B9"/>
</g>
<g style="mix-blend-mode:soft-light">
<path d="M88.9557 5.95743C88.9557 5.95743 93.344 5.95743 97.8702 10.3895L97.4165 11.3177C97.4165 11.3177 95.5899 6.78124 89.5416 6.68238L88.9614 5.95743H88.9557Z" fill="#FDD7B9"/>
</g>
<path d="M75.6069 21.9338C75.6069 21.9338 76.1985 24.6414 76.6695 25.943C76.6695 25.943 78.5994 27.1897 83.9298 27.2886C89.2601 27.3874 90.0815 27.305 91.2073 27.5797C92.3331 27.8597 94.1826 29.5788 94.1826 29.5788C94.1826 29.5788 92.3618 26.3055 91.0063 25.2785L91.437 25.9265C91.437 25.9265 90.6329 25.5586 89.9781 25.3389C89.3233 25.1247 82.7753 24.5206 79.7884 23.6913C78.1284 23.2299 75.6069 21.9338 75.6069 21.9338Z" fill="url(#paint40_linear_6_156)"/>
<path d="M76.6695 25.943C76.6695 25.943 74.998 23.1421 74.8774 21.824H75.222C75.222 21.824 76.3363 25.3828 76.6695 25.943Z" fill="url(#paint41_linear_6_156)"/>
<path d="M69.2427 22.494C69.2427 22.494 69.0244 25.1961 68.7487 26.5087C68.7487 26.5087 67.1691 27.9146 62.4247 28.5242C57.6802 29.1394 56.9393 29.1339 55.9628 29.5183C54.9863 29.8973 53.5331 31.7591 53.5331 31.7591C53.5331 31.7591 54.7911 28.3869 55.8767 27.2556L55.5665 27.9311C55.5665 27.9311 56.2443 27.4917 56.8014 27.2171C57.3643 26.9425 63.1369 25.7178 65.7102 24.6194C67.1404 24.0098 69.2427 22.494 69.2427 22.494Z" fill="url(#paint42_linear_6_156)"/>
<path d="M68.7487 26.5087C68.7487 26.5087 69.9205 23.6144 69.8803 22.3183L69.5701 22.3457C69.5701 22.3457 68.9842 25.932 68.7487 26.5087Z" fill="url(#paint43_linear_6_156)"/>
<g style="mix-blend-mode:multiply" opacity="0.4">
<path d="M81.7012 53.3869C81.7012 53.3869 77.623 56.1713 75.2623 56.0176C72.4937 55.8308 70.8395 53.9251 70.8395 53.9251C70.8395 53.9251 73.3725 54.4798 75.7103 54.4578C79.059 54.4249 81.7012 53.3869 81.7012 53.3869Z" fill="#CC77B1"/>
</g>
<path d="M69.84 53.8262L71.4942 53.5242L79.3231 52.8212L81.3278 52.4477L83.6942 52.0084C83.5736 51.7777 83.4128 51.558 83.2175 51.3603C82.1836 50.2893 80.2651 49.7511 79.4438 49.7511C74.6189 49.7511 69.84 53.8317 69.84 53.8317V53.8262Z" fill="#D94058"/>
<g style="mix-blend-mode:multiply" opacity="0.4">
<path d="M76.5661 52.0303L81.3278 52.4477L83.6943 52.0083C83.5737 51.7777 83.4128 51.558 83.2175 51.3603C80.4662 51.0637 76.5661 52.0303 76.5661 52.0303Z" fill="#CC77B1"/>
</g>
<path d="M68.7027 53.6999C69.8572 54.2216 73.6597 53.0628 73.6597 53.0628C73.6597 53.0628 77.1118 53.1727 80.5409 53.1727C81.5805 53.1727 85.2911 51.5305 85.2911 51.5305C85.2911 51.5305 84.0159 52.2665 81.0808 52.0193C76.7959 51.6568 74.9808 52.1182 71.8044 53.266C70.0066 53.9141 68.697 53.6999 68.697 53.6999H68.7027Z" fill="#741C55"/>
<path d="M69.7481 53.8427C69.7481 53.8427 72.6086 54.4908 76.6695 54.4524C81.1382 54.4084 83.9987 52.0743 83.9987 52.0743C83.9987 52.0743 81.9137 52.1841 81.7184 52.1786C81.7184 52.1786 81.7069 52.1786 81.7012 52.1786C81.0751 52.1567 80.2652 52.1182 79.237 52.0523C78.094 51.9754 76.8705 52.0963 75.5667 52.3434C74.3088 52.5851 72.9704 52.9475 71.5574 53.3814C70.7246 53.634 69.7539 53.8427 69.7539 53.8427H69.7481Z" fill="#F16564"/>
<path d="M84.5731 51.0692C85.2969 51.8162 84.9465 52.7443 84.9465 52.7443C84.9465 52.7443 85.9631 52.0688 85.5381 51.5306C85.113 50.9924 84.5731 51.0692 84.5731 51.0692Z" fill="#DB6C7D"/>
<g style="mix-blend-mode:multiply" opacity="0.4">
<path d="M75.5667 52.3488C78.7143 52.1731 80.7821 52.1676 81.7069 52.1841C81.0808 52.1621 80.2709 52.1237 79.2427 52.0578C78.0997 51.9809 76.8763 52.1017 75.5724 52.3488H75.5667Z" fill="#CC77B1"/>
</g>
<defs>
<linearGradient id="paint0_linear_6_156" x1="106.302" y1="40.0521" x2="52.0619" y2="77.0992" gradientUnits="userSpaceOnUse">
<stop stop-color="#31111B"/>
<stop offset="1" stop-color="#1A0F21"/>
</linearGradient>
<linearGradient id="paint1_linear_6_156" x1="111.966" y1="39.1954" x2="78.599" y2="61.9846" gradientUnits="userSpaceOnUse">
<stop stop-color="#31111B"/>
<stop offset="1" stop-color="#1A0F21"/>
</linearGradient>
<linearGradient id="paint2_linear_6_156" x1="118.715" y1="38.5363" x2="79.9735" y2="65.0008" gradientUnits="userSpaceOnUse">
<stop stop-color="#731F25"/>
<stop offset="1" stop-color="#4F0A36"/>
</linearGradient>
<linearGradient id="paint3_linear_6_156" x1="111.765" y1="43.4407" x2="78.2585" y2="66.3291" gradientUnits="userSpaceOnUse">
<stop stop-color="#731F25"/>
<stop offset="1" stop-color="#4F0A36"/>
</linearGradient>
<linearGradient id="paint4_linear_6_156" x1="37.3181" y1="65.6891" x2="48.7145" y2="59.3618" gradientUnits="userSpaceOnUse">
<stop stop-color="#85163C"/>
<stop offset="1" stop-color="#36112D"/>
</linearGradient>
<linearGradient id="paint5_linear_6_156" x1="67.4736" y1="26.0749" x2="67.4736" y2="79.9575" gradientUnits="userSpaceOnUse">
<stop stop-color="#5C0E13"/>
<stop offset="1" stop-color="#4F0A36"/>
</linearGradient>
<linearGradient id="paint6_linear_6_156" x1="67.4736" y1="51.8491" x2="67.4736" y2="58.5" gradientUnits="userSpaceOnUse">
<stop stop-color="#827FBC"/>
<stop offset="1" stop-color="white"/>
</linearGradient>
<linearGradient id="paint7_linear_6_156" x1="59.3345" y1="26.0693" x2="59.3345" y2="79.9575" gradientUnits="userSpaceOnUse">
<stop stop-color="#5C0E13"/>
<stop offset="1" stop-color="#4F0A36"/>
</linearGradient>
<linearGradient id="paint8_linear_6_156" x1="73.4529" y1="33.3408" x2="33.689" y2="60.5008" gradientUnits="userSpaceOnUse">
<stop stop-color="#31111B"/>
<stop offset="1" stop-color="#1A0F21"/>
</linearGradient>
<linearGradient id="paint9_linear_6_156" x1="98.7433" y1="17.974" x2="97.4303" y2="56.8346" gradientUnits="userSpaceOnUse">
<stop stop-color="#B584BB"/>
<stop offset="1" stop-color="white"/>
</linearGradient>
<linearGradient id="paint10_linear_6_156" x1="97.8817" y1="49.2568" x2="97.8817" y2="55.5233" gradientUnits="userSpaceOnUse">
<stop stop-color="#827FBC"/>
<stop offset="1" stop-color="white"/>
</linearGradient>
<linearGradient id="paint11_linear_6_156" x1="56.5298" y1="73.1809" x2="99.2003" y2="69.308" gradientUnits="userSpaceOnUse">
<stop stop-color="#F9AF9C"/>
<stop offset="0.2" stop-color="#F69B8E"/>
<stop offset="0.47" stop-color="#F48781"/>
<stop offset="0.73" stop-color="#F37B79"/>
<stop offset="1" stop-color="#F37777"/>
</linearGradient>
<linearGradient id="paint12_linear_6_156" x1="50.7364" y1="35.3318" x2="104.586" y2="30.4441" gradientUnits="userSpaceOnUse">
<stop stop-color="#F8A795"/>
<stop offset="0.43" stop-color="#F8A997"/>
<stop offset="0.52" stop-color="#F7A290"/>
<stop offset="0.76" stop-color="#F69684"/>
<stop offset="1" stop-color="#F69280"/>
</linearGradient>
<linearGradient id="paint13_linear_6_156" x1="61.4475" y1="40.8071" x2="60.3439" y2="34.2342" gradientUnits="userSpaceOnUse">
<stop stop-color="#E6DBEC"/>
<stop offset="1" stop-color="#B8C1E2"/>
</linearGradient>
<linearGradient id="paint14_linear_6_156" x1="60.3651" y1="40.2595" x2="59.9729" y2="35.6455" gradientUnits="userSpaceOnUse">
<stop stop-color="#57345B"/>
<stop offset="1" stop-color="#301138"/>
</linearGradient>
<linearGradient id="paint15_linear_6_156" x1="60.3533" y1="40.1335" x2="60.0532" y2="36.602" gradientUnits="userSpaceOnUse">
<stop stop-color="#A093B6"/>
<stop offset="0.99" stop-color="#734B61"/>
</linearGradient>
<linearGradient id="paint16_linear_6_156" x1="66.5082" y1="35.1025" x2="55.0625" y2="36.1666" gradientUnits="userSpaceOnUse">
<stop stop-color="#F7A190"/>
<stop offset="0.43" stop-color="#F3A592"/>
<stop offset="0.51" stop-color="#F39F8D"/>
<stop offset="0.76" stop-color="#F49383"/>
<stop offset="1" stop-color="#F58F80"/>
</linearGradient>
<linearGradient id="paint17_linear_6_156" x1="86.6246" y1="39.0011" x2="86.974" y2="31.2534" gradientUnits="userSpaceOnUse">
<stop stop-color="#E6DBEC"/>
<stop offset="1" stop-color="#B8C1E2"/>
</linearGradient>
<linearGradient id="paint18_linear_6_156" x1="84.6324" y1="38.7742" x2="84.4514" y2="33.8014" gradientUnits="userSpaceOnUse">
<stop stop-color="#57345B"/>
<stop offset="1" stop-color="#301138"/>
</linearGradient>
<linearGradient id="paint19_linear_6_156" x1="84.6193" y1="38.4449" x2="84.4863" y2="34.7894" gradientUnits="userSpaceOnUse">
<stop stop-color="#A093B6"/>
<stop offset="0.99" stop-color="#734B61"/>
</linearGradient>
<linearGradient id="paint20_linear_6_156" x1="79.9118" y1="33.1093" x2="93.2893" y2="32.5767" gradientUnits="userSpaceOnUse">
<stop stop-color="#F7A190"/>
<stop offset="0.43" stop-color="#F3A592"/>
<stop offset="0.51" stop-color="#F39F8D"/>
<stop offset="0.76" stop-color="#F49383"/>
<stop offset="1" stop-color="#F58F80"/>
</linearGradient>
<linearGradient id="paint21_linear_6_156" x1="71.9421" y1="47.2099" x2="71.6472" y2="42.374" gradientUnits="userSpaceOnUse">
<stop stop-color="#F37B7F"/>
<stop offset="0.4" stop-color="#F3817F"/>
<stop offset="1" stop-color="#F48680"/>
</linearGradient>
<linearGradient id="paint22_linear_6_156" x1="68.7998" y1="45.8331" x2="68.6373" y2="43.1685" gradientUnits="userSpaceOnUse">
<stop stop-color="#FBE3D4"/>
<stop offset="0.99" stop-color="#AE7CB7"/>
</linearGradient>
<linearGradient id="paint23_linear_6_156" x1="74.8089" y1="45.4708" x2="74.6464" y2="42.8061" gradientUnits="userSpaceOnUse">
<stop stop-color="#FBE3D4"/>
<stop offset="0.99" stop-color="#AE7CB7"/>
</linearGradient>
<linearGradient id="paint24_linear_6_156" x1="103.65" y1="53.3667" x2="103.293" y2="33.7026" gradientUnits="userSpaceOnUse">
<stop stop-color="#F7A190"/>
<stop offset="0.43" stop-color="#F3A592"/>
<stop offset="0.51" stop-color="#F39F8D"/>
<stop offset="0.76" stop-color="#F49383"/>
<stop offset="1" stop-color="#F58F80"/>
</linearGradient>
<linearGradient id="paint25_linear_6_156" x1="103.554" y1="48.249" x2="103.308" y2="34.713" gradientUnits="userSpaceOnUse">
<stop stop-color="#F7A190"/>
<stop offset="0.43" stop-color="#F3A592"/>
<stop offset="0.51" stop-color="#F39F8D"/>
<stop offset="0.76" stop-color="#F49383"/>
<stop offset="1" stop-color="#F58F80"/>
</linearGradient>
<linearGradient id="paint26_linear_6_156" x1="101.187" y1="43.3208" x2="101.08" y2="37.4397" gradientUnits="userSpaceOnUse">
<stop stop-color="#F7A190"/>
<stop offset="0.43" stop-color="#F3A592"/>
<stop offset="0.51" stop-color="#F39F8D"/>
<stop offset="0.76" stop-color="#F49383"/>
<stop offset="1" stop-color="#F58F80"/>
</linearGradient>
<linearGradient id="paint27_linear_6_156" x1="107.43" y1="43.5909" x2="98.7123" y2="43.7643" gradientUnits="userSpaceOnUse">
<stop stop-color="#F7A190"/>
<stop offset="0.43" stop-color="#F3A592"/>
<stop offset="0.51" stop-color="#F39F8D"/>
<stop offset="0.76" stop-color="#F49383"/>
<stop offset="1" stop-color="#F58F80"/>
</linearGradient>
<linearGradient id="paint28_linear_6_156" x1="18.7768" y1="138.36" x2="111.742" y2="138.36" gradientUnits="userSpaceOnUse">
<stop stop-color="#F8A795"/>
<stop offset="0.43" stop-color="#F8A997"/>
<stop offset="0.52" stop-color="#F7A290"/>
<stop offset="0.76" stop-color="#F69684"/>
<stop offset="1" stop-color="#F69280"/>
</linearGradient>
<linearGradient id="paint29_linear_6_156" x1="48.2142" y1="125.932" x2="18.7768" y2="125.932" gradientUnits="userSpaceOnUse">
<stop stop-color="#F8A795"/>
<stop offset="0.43" stop-color="#F8A997"/>
<stop offset="0.52" stop-color="#F7A290"/>
<stop offset="0.76" stop-color="#F69684"/>
<stop offset="1" stop-color="#F69280"/>
</linearGradient>
<linearGradient id="paint30_linear_6_156" x1="33.7626" y1="120.39" x2="19.7647" y2="120.39" gradientUnits="userSpaceOnUse">
<stop stop-color="#F8A795"/>
<stop offset="0.43" stop-color="#F8A997"/>
<stop offset="0.52" stop-color="#F7A290"/>
<stop offset="0.76" stop-color="#F69684"/>
<stop offset="1" stop-color="#F69280"/>
</linearGradient>
<linearGradient id="paint31_linear_6_156" x1="33.0216" y1="124.734" x2="21.6487" y2="124.734" gradientUnits="userSpaceOnUse">
<stop stop-color="#F8A795"/>
<stop offset="0.43" stop-color="#F8A997"/>
<stop offset="0.52" stop-color="#F7A290"/>
<stop offset="0.76" stop-color="#F69684"/>
<stop offset="1" stop-color="#F69280"/>
</linearGradient>
<linearGradient id="paint32_linear_6_156" x1="34.3656" y1="122.581" x2="33.0215" y2="122.581" gradientUnits="userSpaceOnUse">
<stop stop-color="#F8A795"/>
<stop offset="0.43" stop-color="#F8A997"/>
<stop offset="0.52" stop-color="#F7A290"/>
<stop offset="0.76" stop-color="#F69684"/>
<stop offset="1" stop-color="#F69280"/>
</linearGradient>
<linearGradient id="paint33_linear_6_156" x1="76.7557" y1="-3.59879" x2="76.7557" y2="44.2865" gradientUnits="userSpaceOnUse">
<stop stop-color="#6B1425"/>
<stop offset="1" stop-color="#2D0F2C"/>
</linearGradient>
<linearGradient id="paint34_linear_6_156" x1="50.0982" y1="12.9653" x2="103.666" y2="1.8671" gradientUnits="userSpaceOnUse">
<stop stop-color="#827FBC"/>
<stop offset="1" stop-color="white"/>
</linearGradient>
<linearGradient id="paint35_linear_6_156" x1="51.7238" y1="24.3613" x2="106.316" y2="13.0477" gradientUnits="userSpaceOnUse">
<stop stop-color="#827FBC"/>
<stop offset="1" stop-color="white"/>
</linearGradient>
<linearGradient id="paint36_linear_6_156" x1="73.7171" y1="4.69948" x2="85.3303" y2="2.29308" gradientUnits="userSpaceOnUse">
<stop stop-color="#827FBC"/>
<stop offset="1" stop-color="white"/>
</linearGradient>
<linearGradient id="paint37_linear_6_156" x1="66.9048" y1="9.34603" x2="92.4378" y2="4.05436" gradientUnits="userSpaceOnUse">
<stop stop-color="#827FBC"/>
<stop offset="1" stop-color="white"/>
</linearGradient>
<linearGradient id="paint38_linear_6_156" x1="94.1883" y1="11.5923" x2="100.009" y2="10.3891" gradientUnits="userSpaceOnUse">
<stop stop-color="#827FBC"/>
<stop offset="1" stop-color="white"/>
</linearGradient>
<linearGradient id="paint39_linear_6_156" x1="97.0086" y1="26.02" x2="106.601" y2="24.0266" gradientUnits="userSpaceOnUse">
<stop stop-color="#827FBC"/>
<stop offset="1" stop-color="white"/>
</linearGradient>
<linearGradient id="paint40_linear_6_156" x1="74.1502" y1="25.9198" x2="92.5485" y2="25.6377" gradientUnits="userSpaceOnUse">
<stop stop-color="#6B1425"/>
<stop offset="1" stop-color="#2D0F2C"/>
</linearGradient>
<linearGradient id="paint41_linear_6_156" x1="73.3996" y1="23.931" x2="75.1211" y2="23.9046" gradientUnits="userSpaceOnUse">
<stop stop-color="#6B1425"/>
<stop offset="1" stop-color="#2D0F2C"/>
</linearGradient>
<linearGradient id="paint42_linear_6_156" x1="69.6537" y1="26.3165" x2="53.17" y2="28.0008" gradientUnits="userSpaceOnUse">
<stop stop-color="#6B1425"/>
<stop offset="1" stop-color="#2D0F2C"/>
</linearGradient>
<linearGradient id="paint43_linear_6_156" x1="70.106" y1="24.3043" x2="68.5639" y2="24.4619" gradientUnits="userSpaceOnUse">
<stop stop-color="#6B1425"/>
<stop offset="1" stop-color="#2D0F2C"/>
</linearGradient>
</defs>
</svg>
